<mxfile host="Electron" agent="Mozilla/5.0 (X11; Linux x86_64) AppleWebKit/537.36 (KHTML, like Gecko) draw.io/25.0.2 Chrome/128.0.6613.186 Electron/32.2.5 Safari/537.36" version="25.0.2" pages="2">
  <diagram name="Page-1" id="Mco7Y5QbP4esMgn9OeDH">
    <mxGraphModel dx="2868" dy="1740" grid="1" gridSize="10" guides="1" tooltips="1" connect="1" arrows="1" fold="1" page="1" pageScale="1" pageWidth="827" pageHeight="1169" math="0" shadow="0">
      <root>
        <mxCell id="0" />
        <mxCell id="1" parent="0" />
        <mxCell id="gRnMq6CrGzAQdBmHSbeq-2" value="" style="rounded=0;whiteSpace=wrap;html=1;strokeColor=#00FF00;" parent="1" vertex="1">
          <mxGeometry x="1740" y="1110" width="490" height="410" as="geometry" />
        </mxCell>
        <mxCell id="gRnMq6CrGzAQdBmHSbeq-3" value="StudyBridge" style="text;html=1;align=center;verticalAlign=middle;whiteSpace=wrap;rounded=0;fontSize=17;" parent="1" vertex="1">
          <mxGeometry x="1750" y="1120" width="107" height="30" as="geometry" />
        </mxCell>
        <mxCell id="gRnMq6CrGzAQdBmHSbeq-4" style="edgeStyle=orthogonalEdgeStyle;rounded=0;orthogonalLoop=1;jettySize=auto;html=1;entryX=0.846;entryY=0;entryDx=0;entryDy=0;entryPerimeter=0;" parent="1" source="gvfN5K1f9uHCSsbElfQd-11" target="gRnMq6CrGzAQdBmHSbeq-2" edge="1">
          <mxGeometry relative="1" as="geometry">
            <mxPoint x="2220" y="930" as="sourcePoint" />
          </mxGeometry>
        </mxCell>
        <mxCell id="gRnMq6CrGzAQdBmHSbeq-13" style="edgeStyle=orthogonalEdgeStyle;rounded=0;orthogonalLoop=1;jettySize=auto;html=1;" parent="1" source="gRnMq6CrGzAQdBmHSbeq-6" target="gvfN5K1f9uHCSsbElfQd-17" edge="1">
          <mxGeometry relative="1" as="geometry">
            <Array as="points">
              <mxPoint x="2111" y="1340" />
              <mxPoint x="1868" y="1340" />
            </Array>
          </mxGeometry>
        </mxCell>
        <mxCell id="gRnMq6CrGzAQdBmHSbeq-6" value="ChromaDB-Client" style="rounded=1;whiteSpace=wrap;html=1;" parent="1" vertex="1">
          <mxGeometry x="2052.75" y="1134" width="117.25" height="56" as="geometry" />
        </mxCell>
        <mxCell id="gRnMq6CrGzAQdBmHSbeq-7" value="" style="endArrow=classic;html=1;rounded=0;exitX=0.839;exitY=0.003;exitDx=0;exitDy=0;exitPerimeter=0;" parent="1" source="gRnMq6CrGzAQdBmHSbeq-2" target="gRnMq6CrGzAQdBmHSbeq-6" edge="1">
          <mxGeometry width="50" height="50" relative="1" as="geometry">
            <mxPoint x="2003" y="1320" as="sourcePoint" />
            <mxPoint x="2053" y="1270" as="targetPoint" />
          </mxGeometry>
        </mxCell>
        <mxCell id="gRnMq6CrGzAQdBmHSbeq-10" style="edgeStyle=orthogonalEdgeStyle;rounded=0;orthogonalLoop=1;jettySize=auto;html=1;" parent="1" source="gRnMq6CrGzAQdBmHSbeq-8" target="gRnMq6CrGzAQdBmHSbeq-6" edge="1">
          <mxGeometry relative="1" as="geometry">
            <Array as="points">
              <mxPoint x="2090" y="1240" />
            </Array>
          </mxGeometry>
        </mxCell>
        <mxCell id="gRnMq6CrGzAQdBmHSbeq-11" value="Relevant Chunks" style="edgeLabel;html=1;align=center;verticalAlign=middle;resizable=0;points=[];fontSize=14;" parent="gRnMq6CrGzAQdBmHSbeq-10" vertex="1" connectable="0">
          <mxGeometry x="-0.365" y="-1" relative="1" as="geometry">
            <mxPoint x="10" y="-1" as="offset" />
          </mxGeometry>
        </mxCell>
        <mxCell id="gRnMq6CrGzAQdBmHSbeq-8" value="ChromaDB" style="shape=datastore;whiteSpace=wrap;html=1;" parent="1" vertex="1">
          <mxGeometry x="1813" y="1200" width="107" height="90" as="geometry" />
        </mxCell>
        <mxCell id="gRnMq6CrGzAQdBmHSbeq-9" style="edgeStyle=orthogonalEdgeStyle;rounded=0;orthogonalLoop=1;jettySize=auto;html=1;" parent="1" source="gRnMq6CrGzAQdBmHSbeq-6" target="gRnMq6CrGzAQdBmHSbeq-8" edge="1">
          <mxGeometry relative="1" as="geometry">
            <mxPoint x="1851" y="1200" as="targetPoint" />
            <Array as="points">
              <mxPoint x="1852" y="1162" />
            </Array>
          </mxGeometry>
        </mxCell>
        <mxCell id="gvfN5K1f9uHCSsbElfQd-22" value="convert input to vector and&lt;div&gt;compare to entries&lt;/div&gt;" style="edgeLabel;html=1;align=center;verticalAlign=middle;resizable=0;points=[];" parent="gRnMq6CrGzAQdBmHSbeq-9" vertex="1" connectable="0">
          <mxGeometry x="-0.2482" y="-1" relative="1" as="geometry">
            <mxPoint as="offset" />
          </mxGeometry>
        </mxCell>
        <mxCell id="gRnMq6CrGzAQdBmHSbeq-15" style="edgeStyle=orthogonalEdgeStyle;rounded=0;orthogonalLoop=1;jettySize=auto;html=1;" parent="1" source="gRnMq6CrGzAQdBmHSbeq-12" target="gvfN5K1f9uHCSsbElfQd-11" edge="1">
          <mxGeometry relative="1" as="geometry">
            <mxPoint x="2260" y="970" as="targetPoint" />
            <Array as="points">
              <mxPoint x="2415" y="1440" />
            </Array>
          </mxGeometry>
        </mxCell>
        <mxCell id="gRnMq6CrGzAQdBmHSbeq-12" value="MistralLLM" style="shape=parallelogram;perimeter=parallelogramPerimeter;whiteSpace=wrap;html=1;fixedSize=1;strokeWidth=1;fontSize=17;" parent="1" vertex="1">
          <mxGeometry x="2025.38" y="1396" width="172" height="80" as="geometry" />
        </mxCell>
        <mxCell id="IokkfuLeofjJA8Hv1zet-6" style="rounded=0;orthogonalLoop=1;jettySize=auto;html=1;" parent="1" source="IokkfuLeofjJA8Hv1zet-2" target="IokkfuLeofjJA8Hv1zet-5" edge="1">
          <mxGeometry relative="1" as="geometry" />
        </mxCell>
        <mxCell id="IokkfuLeofjJA8Hv1zet-8" style="rounded=0;orthogonalLoop=1;jettySize=auto;html=1;" parent="1" source="IokkfuLeofjJA8Hv1zet-2" target="IokkfuLeofjJA8Hv1zet-7" edge="1">
          <mxGeometry relative="1" as="geometry" />
        </mxCell>
        <mxCell id="IokkfuLeofjJA8Hv1zet-12" style="edgeStyle=orthogonalEdgeStyle;rounded=0;orthogonalLoop=1;jettySize=auto;html=1;" parent="1" source="IokkfuLeofjJA8Hv1zet-2" target="IokkfuLeofjJA8Hv1zet-9" edge="1">
          <mxGeometry relative="1" as="geometry" />
        </mxCell>
        <mxCell id="IokkfuLeofjJA8Hv1zet-2" value="" style="rounded=0;whiteSpace=wrap;html=1;strokeColor=#FFCC99;strokeWidth=2;" parent="1" vertex="1">
          <mxGeometry x="660" y="710" width="220" height="140" as="geometry" />
        </mxCell>
        <mxCell id="IokkfuLeofjJA8Hv1zet-3" value="Document Loader" style="text;html=1;align=center;verticalAlign=middle;whiteSpace=wrap;rounded=0;fontSize=20;" parent="1" vertex="1">
          <mxGeometry x="670" y="720" width="170" height="30" as="geometry" />
        </mxCell>
        <mxCell id="IokkfuLeofjJA8Hv1zet-5" value="PDFs" style="shape=card;whiteSpace=wrap;html=1;" parent="1" vertex="1">
          <mxGeometry x="480" y="680" width="80" height="100" as="geometry" />
        </mxCell>
        <mxCell id="IokkfuLeofjJA8Hv1zet-7" value="Website" style="shape=card;whiteSpace=wrap;html=1;" parent="1" vertex="1">
          <mxGeometry x="480" y="820" width="80" height="100" as="geometry" />
        </mxCell>
        <mxCell id="IokkfuLeofjJA8Hv1zet-9" value="" style="rounded=0;whiteSpace=wrap;html=1;strokeColor=#FF9933;strokeWidth=2;" parent="1" vertex="1">
          <mxGeometry x="410" y="1190" width="650" height="370" as="geometry" />
        </mxCell>
        <mxCell id="IokkfuLeofjJA8Hv1zet-10" value="Text Splitter" style="text;html=1;align=center;verticalAlign=middle;whiteSpace=wrap;rounded=0;fontSize=20;" parent="1" vertex="1">
          <mxGeometry x="420" y="1190" width="130" height="30" as="geometry" />
        </mxCell>
        <mxCell id="IokkfuLeofjJA8Hv1zet-11" value="Page Content +&lt;div&gt;Metadata (document location, ...)&lt;/div&gt;" style="shape=note;whiteSpace=wrap;html=1;backgroundOutline=1;darkOpacity=0.05;fontSize=17;" parent="1" vertex="1">
          <mxGeometry x="700" y="950" width="170" height="150" as="geometry" />
        </mxCell>
        <mxCell id="IokkfuLeofjJA8Hv1zet-15" value="" style="rounded=0;whiteSpace=wrap;html=1;" parent="1" vertex="1">
          <mxGeometry x="498" y="1230" width="512" height="141" as="geometry" />
        </mxCell>
        <mxCell id="IokkfuLeofjJA8Hv1zet-16" value="" style="rounded=0;whiteSpace=wrap;html=1;" parent="1" vertex="1">
          <mxGeometry x="500" y="1377" width="502" height="60" as="geometry" />
        </mxCell>
        <mxCell id="IokkfuLeofjJA8Hv1zet-17" value="" style="rounded=0;whiteSpace=wrap;html=1;" parent="1" vertex="1">
          <mxGeometry x="500" y="1446" width="501" height="60" as="geometry" />
        </mxCell>
        <mxCell id="IokkfuLeofjJA8Hv1zet-14" value="&lt;div&gt;&lt;div&gt;Chunk 117:&lt;/div&gt;&lt;div&gt;1 Compulsory Modules 1.1 Artificial Intelligence (M-IN-IN06)&amp;nbsp; Artificial Intelligence, KÃ¼nstliche Intelligenz (KINT) ID&amp;nbsp; Workload 180h ECTS 6 Term at study start ST (start): 2 WT (start): 1 Frequency winter term Duration 1 term&amp;nbsp; 1 Course Lecture plus workshops Contact time lecture&amp;nbsp; 30h Contact time other&amp;nbsp; 30h Self-studies 120h Planned group size&amp;nbsp; 25 students&amp;nbsp; &amp;nbsp;2 Learning Outcomes The students know advanced methods of artificial intelligence. Especially deep learning and deep reinforcement learning algorithms are understood by the students and can be applied to new problems. The students know how to train, tune and debug Deep Learning models.&lt;/div&gt;&lt;/div&gt;&lt;div&gt;&lt;br&gt;&lt;/div&gt;&lt;div&gt;Taciti et eleifend proin imperdiet maximus lectus non. Etiam lacinia libero ante venenatis, ultricies faucibus. Amet conubia proin mi efficitur porta sodales eleifend ligula. Egestas sodales potenti tempor netus sed facilisis. Ad class tortor [...]&lt;/div&gt;&lt;div&gt;&lt;br&gt;&lt;/div&gt;&lt;div&gt;&lt;br&gt;&lt;/div&gt;&lt;div&gt;Cras cursus condimentum ridiculus turpis ultricies pretium maecenas. Odio ex montes ultrices tincidunt nullam facilisis amet mattis quam. Orci sem nec eu malesuada posuere netus. Vitae class risus dapibus eleifend nullam. Quam odio[...]&lt;/div&gt;" style="text;html=1;align=left;verticalAlign=middle;whiteSpace=wrap;rounded=0;" parent="1" vertex="1">
          <mxGeometry x="507.5" y="1230" width="495" height="275" as="geometry" />
        </mxCell>
        <mxCell id="IokkfuLeofjJA8Hv1zet-18" value="Chunks" style="text;html=1;align=center;verticalAlign=middle;whiteSpace=wrap;rounded=0;textDirection=vertical-lr;rotation=-155;fontSize=28;" parent="1" vertex="1">
          <mxGeometry x="440" y="1321.25" width="40" height="97.5" as="geometry" />
        </mxCell>
        <mxCell id="gvfN5K1f9uHCSsbElfQd-10" style="edgeStyle=orthogonalEdgeStyle;rounded=0;orthogonalLoop=1;jettySize=auto;html=1;" parent="1" source="gvfN5K1f9uHCSsbElfQd-1" target="gRnMq6CrGzAQdBmHSbeq-8" edge="1">
          <mxGeometry relative="1" as="geometry" />
        </mxCell>
        <mxCell id="gvfN5K1f9uHCSsbElfQd-1" value="" style="rounded=0;whiteSpace=wrap;html=1;strokeColor=#FF8000;strokeWidth=2;" parent="1" vertex="1">
          <mxGeometry x="1140" y="1180" width="450" height="380" as="geometry" />
        </mxCell>
        <mxCell id="gvfN5K1f9uHCSsbElfQd-2" value="Embeddings" style="text;html=1;align=center;verticalAlign=middle;whiteSpace=wrap;rounded=0;fontSize=21;" parent="1" vertex="1">
          <mxGeometry x="1150" y="1180" width="120" height="30" as="geometry" />
        </mxCell>
        <mxCell id="gvfN5K1f9uHCSsbElfQd-3" value="&lt;div&gt;Chunk 117 Embedding:&lt;/div&gt;&lt;div&gt;[-4.90018204e-02 -2.20426042e-02&amp;nbsp; 5.57043999e-02&amp;nbsp; 1.20315524e-02&lt;/div&gt;&lt;div style=&quot;text-align: center;&quot;&gt;&amp;nbsp;*...92x*&lt;/div&gt;&lt;div style=&quot;text-align: center;&quot;&gt;&amp;nbsp; 1.91455241e-02&amp;nbsp; 3.55795436e-02&amp;nbsp; 5.93598709e-02&amp;nbsp; 1.30354434e-01&lt;/div&gt;&lt;div&gt;&amp;nbsp; 2.50550248e-02 -2.70692967e-02 -5.42161018e-02&amp;nbsp; 3.71752456e-02&lt;/div&gt;&lt;div&gt;&amp;nbsp;-4.66859303e-02 -2.26827171e-02 -7.04206824e-02&amp;nbsp; 1.52761713e-02]&lt;/div&gt;" style="rounded=0;whiteSpace=wrap;html=1;align=left;spacingLeft=3;" parent="1" vertex="1">
          <mxGeometry x="1170" y="1260" width="390" height="100" as="geometry" />
        </mxCell>
        <mxCell id="gvfN5K1f9uHCSsbElfQd-4" value="" style="endArrow=classic;html=1;rounded=0;" parent="1" source="IokkfuLeofjJA8Hv1zet-15" target="gvfN5K1f9uHCSsbElfQd-3" edge="1">
          <mxGeometry width="50" height="50" relative="1" as="geometry">
            <mxPoint x="1080" y="1400" as="sourcePoint" />
            <mxPoint x="1130" y="1350" as="targetPoint" />
          </mxGeometry>
        </mxCell>
        <mxCell id="gvfN5K1f9uHCSsbElfQd-5" value="&lt;div&gt;&lt;span style=&quot;background-color: initial;&quot;&gt;[-4.90018204e-02 -2.20426042e-02&amp;nbsp; 5.57043999e-02&amp;nbsp; 1.20315524e-02&lt;/span&gt;&lt;br&gt;&lt;/div&gt;&lt;div style=&quot;text-align: center;&quot;&gt;&amp;nbsp;*...92x*&lt;/div&gt;&lt;div style=&quot;text-align: center;&quot;&gt;&amp;nbsp; 1.91455241e-02&amp;nbsp; 3.55795436e-02&amp;nbsp; 5.93598709e-02&amp;nbsp; 1.30354434e-01&lt;/div&gt;&lt;div&gt;&amp;nbsp; 2.50550248e-02 -2.70692967e-02 -5.42161018e-02&amp;nbsp; 3.71752456e-02&lt;/div&gt;&lt;div&gt;&amp;nbsp;-4.66859303e-02 -2.26827171e-02 -7.04206824e-02&amp;nbsp; 1.52761713e-02]&lt;/div&gt;" style="rounded=0;whiteSpace=wrap;html=1;align=left;spacingLeft=3;" parent="1" vertex="1">
          <mxGeometry x="1170" y="1371" width="390" height="79" as="geometry" />
        </mxCell>
        <mxCell id="gvfN5K1f9uHCSsbElfQd-6" value="&lt;div&gt;&lt;span style=&quot;background-color: initial;&quot;&gt;[-4.90018204e-02 -2.20426042e-02&amp;nbsp; 5.57043999e-02&amp;nbsp; 1.20315524e-02&lt;/span&gt;&lt;br&gt;&lt;/div&gt;&lt;div style=&quot;text-align: center;&quot;&gt;&amp;nbsp;*...92x*&lt;/div&gt;&lt;div style=&quot;text-align: center;&quot;&gt;&amp;nbsp; 1.91455241e-02&amp;nbsp; 3.55795436e-02&amp;nbsp; 5.93598709e-02&amp;nbsp; 1.30354434e-01&lt;/div&gt;&lt;div&gt;&amp;nbsp; 2.50550248e-02 -2.70692967e-02 -5.42161018e-02&amp;nbsp; 3.71752456e-02&lt;/div&gt;&lt;div&gt;&amp;nbsp;-4.66859303e-02 -2.26827171e-02 -7.04206824e-02&amp;nbsp; 1.52761713e-02]&lt;/div&gt;" style="rounded=0;whiteSpace=wrap;html=1;align=left;spacingLeft=3;" parent="1" vertex="1">
          <mxGeometry x="1170" y="1460" width="390" height="79" as="geometry" />
        </mxCell>
        <mxCell id="gvfN5K1f9uHCSsbElfQd-7" value="" style="endArrow=classic;html=1;rounded=0;exitX=1.003;exitY=0.653;exitDx=0;exitDy=0;exitPerimeter=0;" parent="1" source="IokkfuLeofjJA8Hv1zet-14" target="gvfN5K1f9uHCSsbElfQd-5" edge="1">
          <mxGeometry width="50" height="50" relative="1" as="geometry">
            <mxPoint x="1020" y="1314" as="sourcePoint" />
            <mxPoint x="1180" y="1317" as="targetPoint" />
          </mxGeometry>
        </mxCell>
        <mxCell id="gvfN5K1f9uHCSsbElfQd-8" value="" style="endArrow=classic;html=1;rounded=0;exitX=1.003;exitY=0.908;exitDx=0;exitDy=0;exitPerimeter=0;" parent="1" source="IokkfuLeofjJA8Hv1zet-14" target="gvfN5K1f9uHCSsbElfQd-6" edge="1">
          <mxGeometry width="50" height="50" relative="1" as="geometry">
            <mxPoint x="1014" y="1420" as="sourcePoint" />
            <mxPoint x="1180" y="1420" as="targetPoint" />
          </mxGeometry>
        </mxCell>
        <mxCell id="gvfN5K1f9uHCSsbElfQd-9" value="&lt;b&gt;Sentence Transformer model&lt;/b&gt;&amp;nbsp;&lt;div style=&quot;&quot;&gt;maps sentences &amp;amp; paragraphs to a 384 dimensional dense vector space&lt;/div&gt;" style="text;html=1;align=left;verticalAlign=middle;whiteSpace=wrap;rounded=0;" parent="1" vertex="1">
          <mxGeometry x="1170" y="1213" width="369" height="40" as="geometry" />
        </mxCell>
        <mxCell id="gvfN5K1f9uHCSsbElfQd-11" value="Student" style="shape=umlActor;verticalLabelPosition=bottom;verticalAlign=top;html=1;outlineConnect=0;" parent="1" vertex="1">
          <mxGeometry x="2387.5" y="965" width="50" height="90" as="geometry" />
        </mxCell>
        <mxCell id="gvfN5K1f9uHCSsbElfQd-13" value="" style="shape=card;whiteSpace=wrap;html=1;" parent="1" vertex="1">
          <mxGeometry x="2180" y="975" width="157.5" height="70" as="geometry" />
        </mxCell>
        <mxCell id="gvfN5K1f9uHCSsbElfQd-14" value="&quot;What is the workload in hours of the course artificial intelligence?&quot;" style="text;html=1;align=center;verticalAlign=middle;whiteSpace=wrap;rounded=0;" parent="1" vertex="1">
          <mxGeometry x="2183.75" y="987.5" width="150" height="55" as="geometry" />
        </mxCell>
        <mxCell id="gvfN5K1f9uHCSsbElfQd-15" value="" style="endArrow=classic;html=1;rounded=0;curved=1;dashed=1;" parent="1" target="gvfN5K1f9uHCSsbElfQd-3" edge="1">
          <mxGeometry width="50" height="50" relative="1" as="geometry">
            <mxPoint x="2000" y="1250" as="sourcePoint" />
            <mxPoint x="1230" y="1020" as="targetPoint" />
            <Array as="points">
              <mxPoint x="1880" y="1360" />
            </Array>
          </mxGeometry>
        </mxCell>
        <mxCell id="gvfN5K1f9uHCSsbElfQd-19" style="edgeStyle=orthogonalEdgeStyle;rounded=0;orthogonalLoop=1;jettySize=auto;html=1;" parent="1" source="gvfN5K1f9uHCSsbElfQd-17" target="gRnMq6CrGzAQdBmHSbeq-12" edge="1">
          <mxGeometry relative="1" as="geometry" />
        </mxCell>
        <mxCell id="gvfN5K1f9uHCSsbElfQd-17" value="" style="shape=card;whiteSpace=wrap;html=1;" parent="1" vertex="1">
          <mxGeometry x="1756.5" y="1366" width="220" height="140" as="geometry" />
        </mxCell>
        <mxCell id="gvfN5K1f9uHCSsbElfQd-18" value="&quot;&lt;font style=&quot;font-size: 15px;&quot;&gt;Related information&lt;/font&gt;:&lt;div style=&quot;&quot;&gt;&lt;span style=&quot;&quot;&gt;1 Compulsory Modules 1.1 Artificial Intelligence (M-IN-IN06)&amp;nbsp; Artificial Intelligence [...]&lt;/span&gt;&lt;br&gt;&lt;/div&gt;&lt;div style=&quot;&quot;&gt;&lt;font style=&quot;font-size: 15px;&quot;&gt;Question&lt;/font&gt;:&lt;/div&gt;&lt;div style=&quot;&quot;&gt;&lt;span style=&quot;text-align: center;&quot;&gt;What is the workload in hours of the course artificial intelligence?&quot;&lt;/span&gt;&lt;span style=&quot;&quot;&gt;&lt;br&gt;&lt;/span&gt;&lt;/div&gt;" style="text;html=1;align=left;verticalAlign=middle;whiteSpace=wrap;rounded=0;" parent="1" vertex="1">
          <mxGeometry x="1770.25" y="1386" width="196.25" height="110" as="geometry" />
        </mxCell>
        <mxCell id="gvfN5K1f9uHCSsbElfQd-20" value="" style="shape=card;whiteSpace=wrap;html=1;" parent="1" vertex="1">
          <mxGeometry x="2333.75" y="1275" width="157.5" height="70" as="geometry" />
        </mxCell>
        <mxCell id="gvfN5K1f9uHCSsbElfQd-21" value="&quot;The workload for the course &quot;Artificial Intelligence&quot; (ID M-IN-IN06) is 180h.&quot;" style="text;html=1;align=center;verticalAlign=middle;whiteSpace=wrap;rounded=0;" parent="1" vertex="1">
          <mxGeometry x="2337.5" y="1287.5" width="150" height="55" as="geometry" />
        </mxCell>
        <mxCell id="Dag5i3Pw468RZRDQOpoc-1" value="" style="endArrow=none;html=1;rounded=0;strokeWidth=1;" edge="1" parent="1">
          <mxGeometry width="50" height="50" relative="1" as="geometry">
            <mxPoint x="1429" y="690" as="sourcePoint" />
            <mxPoint x="1359" y="560" as="targetPoint" />
            <Array as="points">
              <mxPoint x="1429" y="610" />
            </Array>
          </mxGeometry>
        </mxCell>
        <mxCell id="Dag5i3Pw468RZRDQOpoc-2" value="" style="endArrow=none;html=1;rounded=0;strokeWidth=1;" edge="1" parent="1">
          <mxGeometry width="50" height="50" relative="1" as="geometry">
            <mxPoint x="1509" y="680" as="sourcePoint" />
            <mxPoint x="1559" y="570" as="targetPoint" />
            <Array as="points">
              <mxPoint x="1509" y="610" />
            </Array>
          </mxGeometry>
        </mxCell>
        <mxCell id="Dag5i3Pw468RZRDQOpoc-3" value="" style="endArrow=none;html=1;rounded=0;strokeWidth=1;" edge="1" parent="1">
          <mxGeometry width="50" height="50" relative="1" as="geometry">
            <mxPoint x="1369" y="840" as="sourcePoint" />
            <mxPoint x="1429" y="700" as="targetPoint" />
            <Array as="points">
              <mxPoint x="1369" y="770" />
            </Array>
          </mxGeometry>
        </mxCell>
        <mxCell id="Dag5i3Pw468RZRDQOpoc-4" value="" style="endArrow=none;html=1;rounded=0;strokeWidth=1;" edge="1" parent="1">
          <mxGeometry width="50" height="50" relative="1" as="geometry">
            <mxPoint x="1429" y="830" as="sourcePoint" />
            <mxPoint x="1499" y="830" as="targetPoint" />
            <Array as="points">
              <mxPoint x="1459" y="760" />
            </Array>
          </mxGeometry>
        </mxCell>
        <mxCell id="Dag5i3Pw468RZRDQOpoc-5" value="" style="endArrow=none;html=1;rounded=0;strokeWidth=1;" edge="1" parent="1">
          <mxGeometry width="50" height="50" relative="1" as="geometry">
            <mxPoint x="1559" y="830" as="sourcePoint" />
            <mxPoint x="1509" y="720" as="targetPoint" />
            <Array as="points">
              <mxPoint x="1549" y="760" />
            </Array>
          </mxGeometry>
        </mxCell>
        <mxCell id="Dag5i3Pw468RZRDQOpoc-6" value="" style="endArrow=none;html=1;rounded=0;strokeWidth=6;" edge="1" parent="1">
          <mxGeometry width="50" height="50" relative="1" as="geometry">
            <mxPoint x="1369" y="930" as="sourcePoint" />
            <mxPoint x="1368.5" y="860" as="targetPoint" />
          </mxGeometry>
        </mxCell>
        <mxCell id="Dag5i3Pw468RZRDQOpoc-8" value="" style="endArrow=none;html=1;rounded=0;strokeWidth=6;" edge="1" parent="1">
          <mxGeometry width="50" height="50" relative="1" as="geometry">
            <mxPoint x="1429.5" y="930" as="sourcePoint" />
            <mxPoint x="1429" y="860" as="targetPoint" />
          </mxGeometry>
        </mxCell>
        <mxCell id="Dag5i3Pw468RZRDQOpoc-9" value="" style="endArrow=none;html=1;rounded=0;strokeWidth=6;" edge="1" parent="1">
          <mxGeometry width="50" height="50" relative="1" as="geometry">
            <mxPoint x="1499.5" y="930" as="sourcePoint" />
            <mxPoint x="1499" y="860" as="targetPoint" />
          </mxGeometry>
        </mxCell>
        <mxCell id="Dag5i3Pw468RZRDQOpoc-10" value="" style="endArrow=none;html=1;rounded=0;strokeWidth=6;" edge="1" parent="1">
          <mxGeometry width="50" height="50" relative="1" as="geometry">
            <mxPoint x="1559.5" y="922.5" as="sourcePoint" />
            <mxPoint x="1559" y="852.5" as="targetPoint" />
          </mxGeometry>
        </mxCell>
        <mxCell id="Dag5i3Pw468RZRDQOpoc-11" value="" style="endArrow=none;html=1;rounded=0;" edge="1" parent="1">
          <mxGeometry width="50" height="50" relative="1" as="geometry">
            <mxPoint x="1408" y="1066" as="sourcePoint" />
            <mxPoint x="1358" y="966" as="targetPoint" />
            <Array as="points">
              <mxPoint x="1408" y="1006" />
            </Array>
          </mxGeometry>
        </mxCell>
        <mxCell id="Dag5i3Pw468RZRDQOpoc-12" value="" style="endArrow=none;html=1;rounded=0;" edge="1" parent="1">
          <mxGeometry width="50" height="50" relative="1" as="geometry">
            <mxPoint x="1512" y="1063" as="sourcePoint" />
            <mxPoint x="1560" y="980" as="targetPoint" />
            <Array as="points">
              <mxPoint x="1512" y="1013" />
            </Array>
          </mxGeometry>
        </mxCell>
        <mxCell id="Dag5i3Pw468RZRDQOpoc-13" value="" style="endArrow=none;html=1;rounded=0;" edge="1" parent="1">
          <mxGeometry width="50" height="50" relative="1" as="geometry">
            <mxPoint x="1431" y="990" as="sourcePoint" />
            <mxPoint x="1431" y="960" as="targetPoint" />
          </mxGeometry>
        </mxCell>
        <mxCell id="Dag5i3Pw468RZRDQOpoc-14" value="" style="endArrow=none;html=1;rounded=0;" edge="1" parent="1">
          <mxGeometry width="50" height="50" relative="1" as="geometry">
            <mxPoint x="1497" y="993" as="sourcePoint" />
            <mxPoint x="1497" y="963" as="targetPoint" />
          </mxGeometry>
        </mxCell>
        <mxCell id="Dag5i3Pw468RZRDQOpoc-15" value="Input data" style="text;html=1;align=center;verticalAlign=middle;whiteSpace=wrap;rounded=0;" vertex="1" parent="1">
          <mxGeometry x="1630" y="610" width="60" height="30" as="geometry" />
        </mxCell>
        <mxCell id="Dag5i3Pw468RZRDQOpoc-16" value="Text splitting" style="text;html=1;align=center;verticalAlign=middle;whiteSpace=wrap;rounded=0;" vertex="1" parent="1">
          <mxGeometry x="1660" y="760" width="60" height="30" as="geometry" />
        </mxCell>
        <mxCell id="Dag5i3Pw468RZRDQOpoc-17" value="Create embeddings" style="text;html=1;align=center;verticalAlign=middle;whiteSpace=wrap;rounded=0;" vertex="1" parent="1">
          <mxGeometry x="1660" y="880" width="60" height="30" as="geometry" />
        </mxCell>
        <mxCell id="Dag5i3Pw468RZRDQOpoc-19" value="Storing in ChromaDB" style="text;html=1;align=center;verticalAlign=middle;whiteSpace=wrap;rounded=0;" vertex="1" parent="1">
          <mxGeometry x="1670" y="1010" width="60" height="30" as="geometry" />
        </mxCell>
      </root>
    </mxGraphModel>
  </diagram>
  <diagram id="9sYSXDTYVUJsnWRrAVlm" name="Page-2">
    <mxGraphModel dx="469" dy="682" grid="1" gridSize="10" guides="1" tooltips="1" connect="1" arrows="1" fold="1" page="1" pageScale="1" pageWidth="827" pageHeight="1169" math="0" shadow="0">
      <root>
        <mxCell id="0" />
        <mxCell id="1" parent="0" />
        <mxCell id="0cGDIsokcY6Pq8aXIOwh-46" value="" style="endArrow=none;html=1;rounded=1;strokeWidth=3;curved=0;exitX=0.257;exitY=0.029;exitDx=0;exitDy=0;exitPerimeter=0;" edge="1" source="0cGDIsokcY6Pq8aXIOwh-44" parent="1">
          <mxGeometry width="50" height="50" relative="1" as="geometry">
            <mxPoint x="700" y="2242.5" as="sourcePoint" />
            <mxPoint x="900" y="2112.5" as="targetPoint" />
            <Array as="points">
              <mxPoint x="950" y="2172.5" />
            </Array>
          </mxGeometry>
        </mxCell>
        <mxCell id="T3N2KYZTONj2ANNXmWI--1" value="" style="endArrow=none;html=1;rounded=0;strokeWidth=1;fontSize=13;" edge="1" parent="1">
          <mxGeometry width="50" height="50" relative="1" as="geometry">
            <mxPoint x="1430" y="670" as="sourcePoint" />
            <mxPoint x="1370" y="540" as="targetPoint" />
            <Array as="points">
              <mxPoint x="1430" y="610" />
            </Array>
          </mxGeometry>
        </mxCell>
        <mxCell id="T3N2KYZTONj2ANNXmWI--2" value="" style="endArrow=none;html=1;rounded=0;strokeWidth=1;endSize=6;fontSize=13;" edge="1" parent="1">
          <mxGeometry width="50" height="50" relative="1" as="geometry">
            <mxPoint x="1490" y="670" as="sourcePoint" />
            <mxPoint x="1550" y="540" as="targetPoint" />
            <Array as="points">
              <mxPoint x="1490" y="610" />
            </Array>
          </mxGeometry>
        </mxCell>
        <mxCell id="T3N2KYZTONj2ANNXmWI--3" value="" style="endArrow=none;html=1;rounded=0;startArrow=open;startFill=0;fontSize=13;strokeWidth=1;" edge="1" parent="1">
          <mxGeometry width="50" height="50" relative="1" as="geometry">
            <mxPoint x="1420" y="570" as="sourcePoint" />
            <mxPoint x="1420" y="540" as="targetPoint" />
          </mxGeometry>
        </mxCell>
        <mxCell id="T3N2KYZTONj2ANNXmWI--4" value="" style="endArrow=none;html=1;rounded=0;startArrow=none;startFill=0;fontSize=13;strokeWidth=1;" edge="1" parent="1">
          <mxGeometry width="50" height="50" relative="1" as="geometry">
            <mxPoint x="1440" y="570" as="sourcePoint" />
            <mxPoint x="1440" y="550" as="targetPoint" />
          </mxGeometry>
        </mxCell>
        <mxCell id="T3N2KYZTONj2ANNXmWI--5" value="" style="endArrow=none;html=1;rounded=0;startArrow=open;startFill=0;fontSize=13;strokeWidth=1;" edge="1" parent="1">
          <mxGeometry width="50" height="50" relative="1" as="geometry">
            <mxPoint x="1460" y="570" as="sourcePoint" />
            <mxPoint x="1460" y="540" as="targetPoint" />
          </mxGeometry>
        </mxCell>
        <mxCell id="T3N2KYZTONj2ANNXmWI--6" value="" style="endArrow=none;html=1;rounded=0;fontSize=13;strokeWidth=1;" edge="1" parent="1">
          <mxGeometry width="50" height="50" relative="1" as="geometry">
            <mxPoint x="1480" y="570" as="sourcePoint" />
            <mxPoint x="1480" y="550" as="targetPoint" />
          </mxGeometry>
        </mxCell>
        <mxCell id="T3N2KYZTONj2ANNXmWI--7" value="" style="endArrow=none;html=1;rounded=0;startArrow=open;startFill=0;fontSize=13;strokeWidth=1;" edge="1" parent="1">
          <mxGeometry width="50" height="50" relative="1" as="geometry">
            <mxPoint x="1500" y="570" as="sourcePoint" />
            <mxPoint x="1500" y="540" as="targetPoint" />
          </mxGeometry>
        </mxCell>
        <mxCell id="T3N2KYZTONj2ANNXmWI--8" value="" style="endArrow=none;html=1;rounded=0;fontSize=13;strokeWidth=1;" edge="1" parent="1">
          <mxGeometry width="50" height="50" relative="1" as="geometry">
            <mxPoint x="1400" y="560" as="sourcePoint" />
            <mxPoint x="1400" y="550" as="targetPoint" />
          </mxGeometry>
        </mxCell>
        <mxCell id="T3N2KYZTONj2ANNXmWI--9" value="" style="endArrow=none;html=1;rounded=0;fontSize=13;strokeWidth=1;" edge="1" parent="1">
          <mxGeometry width="50" height="50" relative="1" as="geometry">
            <mxPoint x="1520" y="560" as="sourcePoint" />
            <mxPoint x="1520" y="550" as="targetPoint" />
          </mxGeometry>
        </mxCell>
        <mxCell id="T3N2KYZTONj2ANNXmWI--10" value="raw data" style="shape=card;whiteSpace=wrap;html=1;verticalAlign=bottom;fontSize=10;size=20;" vertex="1" parent="1">
          <mxGeometry x="1420" y="490" width="30" height="40" as="geometry" />
        </mxCell>
        <mxCell id="T3N2KYZTONj2ANNXmWI--11" value="raw data" style="shape=card;whiteSpace=wrap;html=1;verticalAlign=bottom;fontSize=10;size=20;" vertex="1" parent="1">
          <mxGeometry x="1470" y="490" width="30" height="40" as="geometry" />
        </mxCell>
        <mxCell id="T3N2KYZTONj2ANNXmWI--12" value="Data Loading" style="text;html=1;align=center;verticalAlign=middle;whiteSpace=wrap;rounded=0;fontSize=18;" vertex="1" parent="1">
          <mxGeometry x="1270" y="610" width="60" height="30" as="geometry" />
        </mxCell>
        <mxCell id="xOtDPCF30dxbWbM6vEs_-1" value="" style="endArrow=none;html=1;rounded=1;strokeWidth=1;curved=0;" edge="1" parent="1">
          <mxGeometry width="50" height="50" relative="1" as="geometry">
            <mxPoint x="1369" y="830" as="sourcePoint" />
            <mxPoint x="1430" y="690" as="targetPoint" />
            <Array as="points">
              <mxPoint x="1370" y="770" />
            </Array>
          </mxGeometry>
        </mxCell>
        <mxCell id="xOtDPCF30dxbWbM6vEs_-2" value="" style="endArrow=none;html=1;rounded=1;strokeWidth=1;curved=0;" edge="1" parent="1">
          <mxGeometry width="50" height="50" relative="1" as="geometry">
            <mxPoint x="1410" y="830" as="sourcePoint" />
            <mxPoint x="1510" y="830" as="targetPoint" />
            <Array as="points">
              <mxPoint x="1410" y="800" />
              <mxPoint x="1460" y="730" />
              <mxPoint x="1510" y="800" />
            </Array>
          </mxGeometry>
        </mxCell>
        <mxCell id="xOtDPCF30dxbWbM6vEs_-3" value="" style="endArrow=none;html=1;rounded=1;strokeWidth=1;curved=0;" edge="1" parent="1">
          <mxGeometry width="50" height="50" relative="1" as="geometry">
            <mxPoint x="1550" y="830" as="sourcePoint" />
            <mxPoint x="1490" y="690" as="targetPoint" />
            <Array as="points">
              <mxPoint x="1549" y="770" />
            </Array>
          </mxGeometry>
        </mxCell>
        <mxCell id="xOtDPCF30dxbWbM6vEs_-5" value="" style="endArrow=none;dashed=1;html=1;dashPattern=1 3;strokeWidth=2;rounded=0;fontSize=13;" edge="1" parent="1">
          <mxGeometry width="50" height="50" relative="1" as="geometry">
            <mxPoint x="1400" y="680" as="sourcePoint" />
            <mxPoint x="1520" y="680" as="targetPoint" />
          </mxGeometry>
        </mxCell>
        <mxCell id="xOtDPCF30dxbWbM6vEs_-8" value="Data Splitting" style="text;html=1;align=center;verticalAlign=middle;whiteSpace=wrap;rounded=0;fontSize=18;" vertex="1" parent="1">
          <mxGeometry x="1270" y="750" width="60" height="30" as="geometry" />
        </mxCell>
        <mxCell id="xOtDPCF30dxbWbM6vEs_-9" value="" style="endArrow=none;dashed=1;html=1;dashPattern=1 3;strokeWidth=2;rounded=0;" edge="1" parent="1">
          <mxGeometry width="50" height="50" relative="1" as="geometry">
            <mxPoint x="1350" y="840" as="sourcePoint" />
            <mxPoint x="1570" y="840" as="targetPoint" />
          </mxGeometry>
        </mxCell>
        <mxCell id="BLHxQod0gHHo4qrRt8k6-1" value="" style="endArrow=none;html=1;rounded=0;elbow=vertical;shape=link;" edge="1" parent="1">
          <mxGeometry width="50" height="50" relative="1" as="geometry">
            <mxPoint x="1370" y="960" as="sourcePoint" />
            <mxPoint x="1370" y="850" as="targetPoint" />
          </mxGeometry>
        </mxCell>
        <mxCell id="BLHxQod0gHHo4qrRt8k6-2" value="" style="endArrow=none;html=1;rounded=0;shape=link;" edge="1" parent="1">
          <mxGeometry width="50" height="50" relative="1" as="geometry">
            <mxPoint x="1410" y="960" as="sourcePoint" />
            <mxPoint x="1410" y="850" as="targetPoint" />
          </mxGeometry>
        </mxCell>
        <mxCell id="BLHxQod0gHHo4qrRt8k6-3" value="" style="endArrow=none;html=1;rounded=0;shape=link;" edge="1" parent="1">
          <mxGeometry width="50" height="50" relative="1" as="geometry">
            <mxPoint x="1510" y="960" as="sourcePoint" />
            <mxPoint x="1510" y="850" as="targetPoint" />
          </mxGeometry>
        </mxCell>
        <mxCell id="BLHxQod0gHHo4qrRt8k6-4" value="" style="endArrow=none;html=1;rounded=0;shape=link;" edge="1" parent="1">
          <mxGeometry width="50" height="50" relative="1" as="geometry">
            <mxPoint x="1550" y="960" as="sourcePoint" />
            <mxPoint x="1550" y="850" as="targetPoint" />
          </mxGeometry>
        </mxCell>
        <mxCell id="BLHxQod0gHHo4qrRt8k6-5" value="Data Embedding" style="text;html=1;align=center;verticalAlign=middle;whiteSpace=wrap;rounded=0;fontSize=18;" vertex="1" parent="1">
          <mxGeometry x="1270" y="880" width="60" height="30" as="geometry" />
        </mxCell>
        <mxCell id="2FLGFytbMye7pjePZdmn-1" value="ChromaDB" style="shape=datastore;whiteSpace=wrap;html=1;fontSize=17;" vertex="1" parent="1">
          <mxGeometry x="1380" y="1058" width="157" height="110" as="geometry" />
        </mxCell>
        <mxCell id="2FLGFytbMye7pjePZdmn-2" value="" style="endArrow=none;dashed=1;html=1;dashPattern=1 3;strokeWidth=2;rounded=0;" edge="1" parent="1">
          <mxGeometry width="50" height="50" relative="1" as="geometry">
            <mxPoint x="1350" y="970" as="sourcePoint" />
            <mxPoint x="1570" y="970" as="targetPoint" />
          </mxGeometry>
        </mxCell>
        <mxCell id="2FLGFytbMye7pjePZdmn-3" value="" style="endArrow=none;html=1;rounded=1;strokeWidth=1;curved=0;exitX=0.257;exitY=0.029;exitDx=0;exitDy=0;exitPerimeter=0;" edge="1" parent="1" source="2FLGFytbMye7pjePZdmn-1">
          <mxGeometry width="50" height="50" relative="1" as="geometry">
            <mxPoint x="1170" y="1110" as="sourcePoint" />
            <mxPoint x="1370" y="980" as="targetPoint" />
            <Array as="points">
              <mxPoint x="1420" y="1040" />
            </Array>
          </mxGeometry>
        </mxCell>
        <mxCell id="2FLGFytbMye7pjePZdmn-4" value="" style="endArrow=none;html=1;rounded=1;strokeWidth=1;curved=0;" edge="1" parent="1">
          <mxGeometry width="50" height="50" relative="1" as="geometry">
            <mxPoint x="1410" y="980" as="sourcePoint" />
            <mxPoint x="1510" y="980" as="targetPoint" />
            <Array as="points">
              <mxPoint x="1420" y="1000" />
              <mxPoint x="1460" y="1030" />
              <mxPoint x="1500" y="1000" />
            </Array>
          </mxGeometry>
        </mxCell>
        <mxCell id="2FLGFytbMye7pjePZdmn-5" value="" style="endArrow=none;html=1;rounded=1;strokeWidth=1;curved=0;exitX=0.762;exitY=0.018;exitDx=0;exitDy=0;exitPerimeter=0;" edge="1" parent="1" source="2FLGFytbMye7pjePZdmn-1">
          <mxGeometry width="50" height="50" relative="1" as="geometry">
            <mxPoint x="1510" y="1050" as="sourcePoint" />
            <mxPoint x="1550" y="980" as="targetPoint" />
            <Array as="points">
              <mxPoint x="1500" y="1040" />
            </Array>
          </mxGeometry>
        </mxCell>
        <mxCell id="2FLGFytbMye7pjePZdmn-7" value="Data Storing" style="text;html=1;align=center;verticalAlign=middle;whiteSpace=wrap;rounded=0;fontSize=18;" vertex="1" parent="1">
          <mxGeometry x="1270" y="1058" width="60" height="30" as="geometry" />
        </mxCell>
        <mxCell id="2FLGFytbMye7pjePZdmn-8" value="" style="endArrow=none;html=1;rounded=0;strokeWidth=1;" edge="1" parent="1">
          <mxGeometry width="50" height="50" relative="1" as="geometry">
            <mxPoint x="1951" y="769" as="sourcePoint" />
            <mxPoint x="1821" y="829" as="targetPoint" />
            <Array as="points">
              <mxPoint x="1891" y="769" />
            </Array>
          </mxGeometry>
        </mxCell>
        <mxCell id="2FLGFytbMye7pjePZdmn-9" value="" style="endArrow=none;html=1;rounded=0;strokeWidth=1;endSize=6;" edge="1" parent="1">
          <mxGeometry width="50" height="50" relative="1" as="geometry">
            <mxPoint x="1951" y="709" as="sourcePoint" />
            <mxPoint x="1821" y="649" as="targetPoint" />
            <Array as="points">
              <mxPoint x="1891" y="709" />
            </Array>
          </mxGeometry>
        </mxCell>
        <mxCell id="2FLGFytbMye7pjePZdmn-10" value="" style="endArrow=none;html=1;rounded=0;startArrow=open;startFill=0;" edge="1" parent="1">
          <mxGeometry width="50" height="50" relative="1" as="geometry">
            <mxPoint x="1851" y="779" as="sourcePoint" />
            <mxPoint x="1821" y="779" as="targetPoint" />
          </mxGeometry>
        </mxCell>
        <mxCell id="2FLGFytbMye7pjePZdmn-11" value="" style="endArrow=none;html=1;rounded=0;startArrow=none;startFill=0;" edge="1" parent="1">
          <mxGeometry width="50" height="50" relative="1" as="geometry">
            <mxPoint x="1851" y="759" as="sourcePoint" />
            <mxPoint x="1831" y="759" as="targetPoint" />
          </mxGeometry>
        </mxCell>
        <mxCell id="2FLGFytbMye7pjePZdmn-12" value="" style="endArrow=none;html=1;rounded=0;startArrow=open;startFill=0;" edge="1" parent="1">
          <mxGeometry width="50" height="50" relative="1" as="geometry">
            <mxPoint x="1851" y="739" as="sourcePoint" />
            <mxPoint x="1821" y="739" as="targetPoint" />
          </mxGeometry>
        </mxCell>
        <mxCell id="2FLGFytbMye7pjePZdmn-13" value="" style="endArrow=none;html=1;rounded=0;" edge="1" parent="1">
          <mxGeometry width="50" height="50" relative="1" as="geometry">
            <mxPoint x="1851" y="719" as="sourcePoint" />
            <mxPoint x="1831" y="719" as="targetPoint" />
          </mxGeometry>
        </mxCell>
        <mxCell id="2FLGFytbMye7pjePZdmn-14" value="" style="endArrow=none;html=1;rounded=0;startArrow=open;startFill=0;" edge="1" parent="1">
          <mxGeometry width="50" height="50" relative="1" as="geometry">
            <mxPoint x="1851" y="699" as="sourcePoint" />
            <mxPoint x="1821" y="699" as="targetPoint" />
          </mxGeometry>
        </mxCell>
        <mxCell id="2FLGFytbMye7pjePZdmn-15" value="" style="endArrow=none;html=1;rounded=0;" edge="1" parent="1">
          <mxGeometry width="50" height="50" relative="1" as="geometry">
            <mxPoint x="1841" y="799" as="sourcePoint" />
            <mxPoint x="1831" y="799" as="targetPoint" />
          </mxGeometry>
        </mxCell>
        <mxCell id="2FLGFytbMye7pjePZdmn-16" value="" style="endArrow=none;html=1;rounded=0;" edge="1" parent="1">
          <mxGeometry width="50" height="50" relative="1" as="geometry">
            <mxPoint x="1841" y="679" as="sourcePoint" />
            <mxPoint x="1831" y="679" as="targetPoint" />
          </mxGeometry>
        </mxCell>
        <mxCell id="2FLGFytbMye7pjePZdmn-17" value="raw data" style="shape=card;whiteSpace=wrap;html=1;verticalAlign=bottom;fontSize=10;size=20;rotation=0;" vertex="1" parent="1">
          <mxGeometry x="1776" y="744" width="30" height="40" as="geometry" />
        </mxCell>
        <mxCell id="2FLGFytbMye7pjePZdmn-18" value="raw data" style="shape=card;whiteSpace=wrap;html=1;verticalAlign=bottom;fontSize=10;size=20;rotation=0;" vertex="1" parent="1">
          <mxGeometry x="1776" y="694" width="30" height="40" as="geometry" />
        </mxCell>
        <mxCell id="2FLGFytbMye7pjePZdmn-19" value="" style="endArrow=none;html=1;rounded=1;strokeWidth=1;curved=0;" edge="1" parent="1">
          <mxGeometry width="50" height="50" relative="1" as="geometry">
            <mxPoint x="2111" y="830" as="sourcePoint" />
            <mxPoint x="1971" y="769" as="targetPoint" />
            <Array as="points">
              <mxPoint x="2051" y="829" />
            </Array>
          </mxGeometry>
        </mxCell>
        <mxCell id="2FLGFytbMye7pjePZdmn-20" value="" style="endArrow=none;html=1;rounded=1;strokeWidth=1;curved=0;" edge="1" parent="1">
          <mxGeometry width="50" height="50" relative="1" as="geometry">
            <mxPoint x="2111" y="789" as="sourcePoint" />
            <mxPoint x="2111" y="689" as="targetPoint" />
            <Array as="points">
              <mxPoint x="2081" y="789" />
              <mxPoint x="2011" y="739" />
              <mxPoint x="2081" y="689" />
            </Array>
          </mxGeometry>
        </mxCell>
        <mxCell id="2FLGFytbMye7pjePZdmn-21" value="" style="endArrow=none;html=1;rounded=1;strokeWidth=1;curved=0;" edge="1" parent="1">
          <mxGeometry width="50" height="50" relative="1" as="geometry">
            <mxPoint x="2111" y="649" as="sourcePoint" />
            <mxPoint x="1971" y="709" as="targetPoint" />
            <Array as="points">
              <mxPoint x="2051" y="650" />
            </Array>
          </mxGeometry>
        </mxCell>
        <mxCell id="2FLGFytbMye7pjePZdmn-22" value="" style="endArrow=none;dashed=1;html=1;dashPattern=1 3;strokeWidth=2;rounded=0;" edge="1" parent="1">
          <mxGeometry width="50" height="50" relative="1" as="geometry">
            <mxPoint x="1961" y="799" as="sourcePoint" />
            <mxPoint x="1961" y="679" as="targetPoint" />
          </mxGeometry>
        </mxCell>
        <mxCell id="2FLGFytbMye7pjePZdmn-23" value="" style="endArrow=none;dashed=1;html=1;dashPattern=1 3;strokeWidth=2;rounded=0;" edge="1" parent="1">
          <mxGeometry width="50" height="50" relative="1" as="geometry">
            <mxPoint x="2121" y="849" as="sourcePoint" />
            <mxPoint x="2121" y="629" as="targetPoint" />
          </mxGeometry>
        </mxCell>
        <mxCell id="2FLGFytbMye7pjePZdmn-24" value="" style="endArrow=none;html=1;rounded=0;elbow=vertical;shape=link;" edge="1" parent="1">
          <mxGeometry width="50" height="50" relative="1" as="geometry">
            <mxPoint x="2241" y="829" as="sourcePoint" />
            <mxPoint x="2131" y="829" as="targetPoint" />
          </mxGeometry>
        </mxCell>
        <mxCell id="2FLGFytbMye7pjePZdmn-25" value="" style="endArrow=none;html=1;rounded=0;shape=link;" edge="1" parent="1">
          <mxGeometry width="50" height="50" relative="1" as="geometry">
            <mxPoint x="2241" y="789" as="sourcePoint" />
            <mxPoint x="2131" y="789" as="targetPoint" />
          </mxGeometry>
        </mxCell>
        <mxCell id="2FLGFytbMye7pjePZdmn-26" value="" style="endArrow=none;html=1;rounded=0;shape=link;" edge="1" parent="1">
          <mxGeometry width="50" height="50" relative="1" as="geometry">
            <mxPoint x="2241" y="689" as="sourcePoint" />
            <mxPoint x="2131" y="689" as="targetPoint" />
          </mxGeometry>
        </mxCell>
        <mxCell id="2FLGFytbMye7pjePZdmn-27" value="" style="endArrow=none;html=1;rounded=0;shape=link;" edge="1" parent="1">
          <mxGeometry width="50" height="50" relative="1" as="geometry">
            <mxPoint x="2241" y="649" as="sourcePoint" />
            <mxPoint x="2131" y="649" as="targetPoint" />
          </mxGeometry>
        </mxCell>
        <mxCell id="2FLGFytbMye7pjePZdmn-28" value="ChromaDB" style="shape=datastore;whiteSpace=wrap;html=1;fontSize=17;rotation=0;" vertex="1" parent="1">
          <mxGeometry x="2370" y="680" width="157" height="110" as="geometry" />
        </mxCell>
        <mxCell id="2FLGFytbMye7pjePZdmn-29" value="" style="endArrow=none;dashed=1;html=1;dashPattern=1 3;strokeWidth=2;rounded=0;" edge="1" parent="1">
          <mxGeometry width="50" height="50" relative="1" as="geometry">
            <mxPoint x="2251" y="849" as="sourcePoint" />
            <mxPoint x="2251" y="629" as="targetPoint" />
          </mxGeometry>
        </mxCell>
        <mxCell id="2FLGFytbMye7pjePZdmn-30" value="" style="endArrow=none;html=1;rounded=1;strokeWidth=1;curved=0;" edge="1" parent="1">
          <mxGeometry width="50" height="50" relative="1" as="geometry">
            <mxPoint x="2370" y="770" as="sourcePoint" />
            <mxPoint x="2261" y="829" as="targetPoint" />
            <Array as="points">
              <mxPoint x="2320" y="770" />
            </Array>
          </mxGeometry>
        </mxCell>
        <mxCell id="2FLGFytbMye7pjePZdmn-31" value="" style="endArrow=none;html=1;rounded=1;strokeWidth=1;curved=0;" edge="1" parent="1">
          <mxGeometry width="50" height="50" relative="1" as="geometry">
            <mxPoint x="2261" y="789" as="sourcePoint" />
            <mxPoint x="2261" y="689" as="targetPoint" />
            <Array as="points">
              <mxPoint x="2281" y="779" />
              <mxPoint x="2311" y="739" />
              <mxPoint x="2281" y="699" />
            </Array>
          </mxGeometry>
        </mxCell>
        <mxCell id="2FLGFytbMye7pjePZdmn-32" value="" style="endArrow=none;html=1;rounded=1;strokeWidth=1;curved=0;" edge="1" parent="1">
          <mxGeometry width="50" height="50" relative="1" as="geometry">
            <mxPoint x="2370" y="710" as="sourcePoint" />
            <mxPoint x="2261" y="649" as="targetPoint" />
            <Array as="points">
              <mxPoint x="2320" y="710" />
            </Array>
          </mxGeometry>
        </mxCell>
        <mxCell id="2FLGFytbMye7pjePZdmn-34" value="1.&lt;br&gt;Data Loading" style="text;html=1;align=center;verticalAlign=middle;whiteSpace=wrap;rounded=0;fontSize=18;" vertex="1" parent="1">
          <mxGeometry x="1860" y="570" width="60" height="30" as="geometry" />
        </mxCell>
        <mxCell id="2FLGFytbMye7pjePZdmn-36" value="3.&lt;br&gt;Data Embedding" style="text;html=1;align=center;verticalAlign=middle;whiteSpace=wrap;rounded=0;fontSize=18;" vertex="1" parent="1">
          <mxGeometry x="2160" y="570" width="60" height="30" as="geometry" />
        </mxCell>
        <mxCell id="2FLGFytbMye7pjePZdmn-37" value="4.&lt;br&gt;Data Storing" style="text;html=1;align=center;verticalAlign=middle;whiteSpace=wrap;rounded=0;fontSize=18;" vertex="1" parent="1">
          <mxGeometry x="2350" y="570" width="60" height="30" as="geometry" />
        </mxCell>
        <mxCell id="2FLGFytbMye7pjePZdmn-38" value="2.&lt;br&gt;Data Splitting" style="text;html=1;align=center;verticalAlign=middle;whiteSpace=wrap;rounded=0;fontSize=18;" vertex="1" parent="1">
          <mxGeometry x="2010" y="570" width="60" height="30" as="geometry" />
        </mxCell>
        <mxCell id="P3vaiADwrEd7WijSvOYh-3" style="edgeStyle=orthogonalEdgeStyle;rounded=0;orthogonalLoop=1;jettySize=auto;html=1;" edge="1" parent="1" source="P3vaiADwrEd7WijSvOYh-14" target="P3vaiADwrEd7WijSvOYh-5">
          <mxGeometry relative="1" as="geometry">
            <mxPoint x="2310" y="1023" as="sourcePoint" />
            <mxPoint x="2244.54" y="1203" as="targetPoint" />
            <Array as="points">
              <mxPoint x="2360" y="1196" />
            </Array>
          </mxGeometry>
        </mxCell>
        <mxCell id="P3vaiADwrEd7WijSvOYh-4" style="edgeStyle=orthogonalEdgeStyle;rounded=0;orthogonalLoop=1;jettySize=auto;html=1;" edge="1" parent="1" source="P3vaiADwrEd7WijSvOYh-5" target="P3vaiADwrEd7WijSvOYh-18">
          <mxGeometry relative="1" as="geometry">
            <Array as="points">
              <mxPoint x="2320" y="1433" />
              <mxPoint x="2130" y="1433" />
            </Array>
          </mxGeometry>
        </mxCell>
        <mxCell id="P3vaiADwrEd7WijSvOYh-5" value="ChromaDB-Client" style="rounded=1;whiteSpace=wrap;html=1;" vertex="1" parent="1">
          <mxGeometry x="2230" y="1310" width="173.5" height="56" as="geometry" />
        </mxCell>
        <mxCell id="P3vaiADwrEd7WijSvOYh-7" style="edgeStyle=orthogonalEdgeStyle;rounded=0;orthogonalLoop=1;jettySize=auto;html=1;" edge="1" parent="1" source="P3vaiADwrEd7WijSvOYh-9" target="P3vaiADwrEd7WijSvOYh-5">
          <mxGeometry relative="1" as="geometry">
            <Array as="points">
              <mxPoint x="2084" y="1350" />
            </Array>
          </mxGeometry>
        </mxCell>
        <mxCell id="P3vaiADwrEd7WijSvOYh-8" value="Relevant chunks" style="edgeLabel;html=1;align=center;verticalAlign=middle;resizable=0;points=[];fontSize=14;" vertex="1" connectable="0" parent="P3vaiADwrEd7WijSvOYh-7">
          <mxGeometry x="-0.365" y="-1" relative="1" as="geometry">
            <mxPoint x="42" y="-1" as="offset" />
          </mxGeometry>
        </mxCell>
        <mxCell id="P3vaiADwrEd7WijSvOYh-9" value="ChromaDB" style="shape=datastore;whiteSpace=wrap;html=1;" vertex="1" parent="1">
          <mxGeometry x="2030" y="1232" width="107" height="90" as="geometry" />
        </mxCell>
        <mxCell id="P3vaiADwrEd7WijSvOYh-10" style="edgeStyle=orthogonalEdgeStyle;rounded=0;orthogonalLoop=1;jettySize=auto;html=1;" edge="1" parent="1" source="P3vaiADwrEd7WijSvOYh-5" target="P3vaiADwrEd7WijSvOYh-9">
          <mxGeometry relative="1" as="geometry">
            <mxPoint x="1941" y="1293" as="targetPoint" />
            <Array as="points">
              <mxPoint x="2290" y="1190" />
              <mxPoint x="2084" y="1190" />
            </Array>
          </mxGeometry>
        </mxCell>
        <mxCell id="P3vaiADwrEd7WijSvOYh-11" value="Convert input to vector and&lt;div&gt;compare to entries&lt;/div&gt;" style="edgeLabel;html=1;align=center;verticalAlign=middle;resizable=0;points=[];fontSize=14;" vertex="1" connectable="0" parent="P3vaiADwrEd7WijSvOYh-10">
          <mxGeometry x="-0.2482" y="-1" relative="1" as="geometry">
            <mxPoint x="-77" as="offset" />
          </mxGeometry>
        </mxCell>
        <mxCell id="P3vaiADwrEd7WijSvOYh-12" style="edgeStyle=orthogonalEdgeStyle;rounded=0;orthogonalLoop=1;jettySize=auto;html=1;" edge="1" parent="1" source="P3vaiADwrEd7WijSvOYh-13">
          <mxGeometry relative="1" as="geometry">
            <mxPoint x="2620" y="1270" as="targetPoint" />
            <Array as="points">
              <mxPoint x="2620" y="1533" />
              <mxPoint x="2620" y="1290" />
            </Array>
          </mxGeometry>
        </mxCell>
        <mxCell id="P3vaiADwrEd7WijSvOYh-13" value="MistralLLM" style="shape=parallelogram;perimeter=parallelogramPerimeter;whiteSpace=wrap;html=1;fixedSize=1;strokeWidth=1;fontSize=17;" vertex="1" parent="1">
          <mxGeometry x="2294" y="1500" width="172" height="80" as="geometry" />
        </mxCell>
        <mxCell id="P3vaiADwrEd7WijSvOYh-14" value="Student" style="shape=umlActor;verticalLabelPosition=bottom;verticalAlign=top;html=1;outlineConnect=0;strokeWidth=3;" vertex="1" parent="1">
          <mxGeometry x="2597.5" y="1151" width="50" height="90" as="geometry" />
        </mxCell>
        <mxCell id="P3vaiADwrEd7WijSvOYh-15" value="Question" style="shape=card;whiteSpace=wrap;html=1;fillColor=#ffe6cc;strokeColor=#d79b00;" vertex="1" parent="1">
          <mxGeometry x="2390" y="1161" width="157.5" height="70" as="geometry" />
        </mxCell>
        <mxCell id="P3vaiADwrEd7WijSvOYh-16" value="&quot;What is the workload in hours of the course artificial intelligence?&quot;" style="text;html=1;align=center;verticalAlign=middle;whiteSpace=wrap;rounded=0;" vertex="1" parent="1">
          <mxGeometry x="2144" y="1010" width="150" height="55" as="geometry" />
        </mxCell>
        <mxCell id="P3vaiADwrEd7WijSvOYh-17" style="edgeStyle=orthogonalEdgeStyle;rounded=0;orthogonalLoop=1;jettySize=auto;html=1;" edge="1" parent="1" source="P3vaiADwrEd7WijSvOYh-18" target="P3vaiADwrEd7WijSvOYh-13">
          <mxGeometry relative="1" as="geometry">
            <Array as="points">
              <mxPoint x="2270" y="1538" />
              <mxPoint x="2270" y="1538" />
            </Array>
          </mxGeometry>
        </mxCell>
        <mxCell id="P3vaiADwrEd7WijSvOYh-18" value="" style="shape=card;whiteSpace=wrap;html=1;fillColor=#ffe6cc;strokeColor=#d79b00;" vertex="1" parent="1">
          <mxGeometry x="2030" y="1460" width="183" height="120" as="geometry" />
        </mxCell>
        <mxCell id="P3vaiADwrEd7WijSvOYh-19" value="Combined Query" style="text;html=1;align=left;verticalAlign=middle;whiteSpace=wrap;rounded=0;fontSize=17;" vertex="1" parent="1">
          <mxGeometry x="2052.63" y="1467.5" width="196.25" height="110" as="geometry" />
        </mxCell>
        <mxCell id="P3vaiADwrEd7WijSvOYh-20" value="Answer" style="shape=card;whiteSpace=wrap;html=1;fillColor=#ffe6cc;strokeColor=#d79b00;fontSize=18;" vertex="1" parent="1">
          <mxGeometry x="2530" y="1410" width="157.5" height="70" as="geometry" />
        </mxCell>
        <mxCell id="P3vaiADwrEd7WijSvOYh-21" value="&quot;The workload for the course &quot;Artificial Intelligence&quot; (ID M-IN-IN06) is 180h.&quot;" style="text;html=1;align=center;verticalAlign=middle;whiteSpace=wrap;rounded=0;" vertex="1" parent="1">
          <mxGeometry x="2790" y="1440" width="150" height="55" as="geometry" />
        </mxCell>
        <mxCell id="P3vaiADwrEd7WijSvOYh-23" value="" style="shape=card;whiteSpace=wrap;html=1;" vertex="1" parent="1">
          <mxGeometry x="1700" y="1350" width="220" height="140" as="geometry" />
        </mxCell>
        <mxCell id="P3vaiADwrEd7WijSvOYh-24" value="&quot;&lt;font style=&quot;font-size: 15px;&quot;&gt;Related information&lt;/font&gt;:&lt;div style=&quot;&quot;&gt;&lt;span style=&quot;&quot;&gt;1 Compulsory Modules 1.1 Artificial Intelligence (M-IN-IN06)&amp;nbsp; Artificial Intelligence [...]&lt;/span&gt;&lt;br&gt;&lt;/div&gt;&lt;div style=&quot;&quot;&gt;&lt;font style=&quot;font-size: 15px;&quot;&gt;Question&lt;/font&gt;:&lt;/div&gt;&lt;div style=&quot;&quot;&gt;&lt;span style=&quot;text-align: center;&quot;&gt;What is the workload in hours of the course artificial intelligence?&quot;&lt;/span&gt;&lt;span style=&quot;&quot;&gt;&lt;br&gt;&lt;/span&gt;&lt;/div&gt;" style="text;html=1;align=left;verticalAlign=middle;whiteSpace=wrap;rounded=0;" vertex="1" parent="1">
          <mxGeometry x="1713.75" y="1370" width="196.25" height="110" as="geometry" />
        </mxCell>
        <mxCell id="0cGDIsokcY6Pq8aXIOwh-24" value="" style="endArrow=none;html=1;rounded=0;strokeWidth=3;fontSize=13;" edge="1" parent="1">
          <mxGeometry width="50" height="50" relative="1" as="geometry">
            <mxPoint x="960" y="1802.5" as="sourcePoint" />
            <mxPoint x="900" y="1672.5" as="targetPoint" />
            <Array as="points">
              <mxPoint x="960" y="1742.5" />
            </Array>
          </mxGeometry>
        </mxCell>
        <mxCell id="0cGDIsokcY6Pq8aXIOwh-25" value="" style="endArrow=none;html=1;rounded=0;strokeWidth=3;endSize=6;fontSize=13;" edge="1" parent="1">
          <mxGeometry width="50" height="50" relative="1" as="geometry">
            <mxPoint x="1020" y="1802.5" as="sourcePoint" />
            <mxPoint x="1080" y="1672.5" as="targetPoint" />
            <Array as="points">
              <mxPoint x="1020" y="1742.5" />
            </Array>
          </mxGeometry>
        </mxCell>
        <mxCell id="0cGDIsokcY6Pq8aXIOwh-26" value="" style="endArrow=none;html=1;rounded=0;startArrow=open;startFill=0;fontSize=13;strokeWidth=3;" edge="1" parent="1">
          <mxGeometry width="50" height="50" relative="1" as="geometry">
            <mxPoint x="950" y="1702.5" as="sourcePoint" />
            <mxPoint x="950" y="1672.5" as="targetPoint" />
          </mxGeometry>
        </mxCell>
        <mxCell id="0cGDIsokcY6Pq8aXIOwh-27" value="" style="endArrow=none;html=1;rounded=0;startArrow=none;startFill=0;fontSize=13;strokeWidth=3;" edge="1" parent="1">
          <mxGeometry width="50" height="50" relative="1" as="geometry">
            <mxPoint x="970" y="1702.5" as="sourcePoint" />
            <mxPoint x="970" y="1682.5" as="targetPoint" />
          </mxGeometry>
        </mxCell>
        <mxCell id="0cGDIsokcY6Pq8aXIOwh-28" value="" style="endArrow=none;html=1;rounded=0;startArrow=open;startFill=0;fontSize=13;strokeWidth=3;" edge="1" parent="1">
          <mxGeometry width="50" height="50" relative="1" as="geometry">
            <mxPoint x="990" y="1702.5" as="sourcePoint" />
            <mxPoint x="990" y="1672.5" as="targetPoint" />
          </mxGeometry>
        </mxCell>
        <mxCell id="0cGDIsokcY6Pq8aXIOwh-29" value="" style="endArrow=none;html=1;rounded=0;fontSize=13;strokeWidth=3;" edge="1" parent="1">
          <mxGeometry width="50" height="50" relative="1" as="geometry">
            <mxPoint x="1010" y="1702.5" as="sourcePoint" />
            <mxPoint x="1010" y="1682.5" as="targetPoint" />
          </mxGeometry>
        </mxCell>
        <mxCell id="0cGDIsokcY6Pq8aXIOwh-30" value="" style="endArrow=none;html=1;rounded=0;startArrow=open;startFill=0;fontSize=13;strokeWidth=3;" edge="1" parent="1">
          <mxGeometry width="50" height="50" relative="1" as="geometry">
            <mxPoint x="1030" y="1702.5" as="sourcePoint" />
            <mxPoint x="1030" y="1672.5" as="targetPoint" />
          </mxGeometry>
        </mxCell>
        <mxCell id="0cGDIsokcY6Pq8aXIOwh-31" value="" style="endArrow=none;html=1;rounded=0;fontSize=13;strokeWidth=3;" edge="1" parent="1">
          <mxGeometry width="50" height="50" relative="1" as="geometry">
            <mxPoint x="930" y="1692.5" as="sourcePoint" />
            <mxPoint x="930" y="1682.5" as="targetPoint" />
          </mxGeometry>
        </mxCell>
        <mxCell id="0cGDIsokcY6Pq8aXIOwh-32" value="" style="endArrow=none;html=1;rounded=0;fontSize=13;strokeWidth=3;" edge="1" parent="1">
          <mxGeometry width="50" height="50" relative="1" as="geometry">
            <mxPoint x="1050" y="1692.5" as="sourcePoint" />
            <mxPoint x="1050" y="1682.5" as="targetPoint" />
          </mxGeometry>
        </mxCell>
        <mxCell id="0cGDIsokcY6Pq8aXIOwh-35" value="" style="endArrow=none;html=1;rounded=1;strokeWidth=3;curved=0;" edge="1" parent="1">
          <mxGeometry width="50" height="50" relative="1" as="geometry">
            <mxPoint x="899" y="1962.5" as="sourcePoint" />
            <mxPoint x="960" y="1822.5" as="targetPoint" />
            <Array as="points">
              <mxPoint x="900" y="1902.5" />
            </Array>
          </mxGeometry>
        </mxCell>
        <mxCell id="0cGDIsokcY6Pq8aXIOwh-36" value="" style="endArrow=none;html=1;rounded=1;strokeWidth=3;curved=0;" edge="1" parent="1">
          <mxGeometry width="50" height="50" relative="1" as="geometry">
            <mxPoint x="940" y="1962.5" as="sourcePoint" />
            <mxPoint x="1040" y="1962.5" as="targetPoint" />
            <Array as="points">
              <mxPoint x="940" y="1932.5" />
              <mxPoint x="990" y="1862.5" />
              <mxPoint x="1040" y="1932.5" />
            </Array>
          </mxGeometry>
        </mxCell>
        <mxCell id="0cGDIsokcY6Pq8aXIOwh-37" value="" style="endArrow=none;html=1;rounded=1;strokeWidth=3;curved=0;" edge="1" parent="1">
          <mxGeometry width="50" height="50" relative="1" as="geometry">
            <mxPoint x="1080" y="1962.5" as="sourcePoint" />
            <mxPoint x="1020" y="1822.5" as="targetPoint" />
            <Array as="points">
              <mxPoint x="1079" y="1902.5" />
            </Array>
          </mxGeometry>
        </mxCell>
        <mxCell id="0cGDIsokcY6Pq8aXIOwh-38" value="" style="endArrow=none;dashed=1;html=1;dashPattern=1 3;strokeWidth=3;rounded=0;fontSize=13;" edge="1" parent="1">
          <mxGeometry width="50" height="50" relative="1" as="geometry">
            <mxPoint x="930" y="1812.5" as="sourcePoint" />
            <mxPoint x="1050" y="1812.5" as="targetPoint" />
          </mxGeometry>
        </mxCell>
        <mxCell id="0cGDIsokcY6Pq8aXIOwh-39" value="" style="endArrow=none;dashed=1;html=1;dashPattern=1 3;strokeWidth=3;rounded=0;" edge="1" parent="1">
          <mxGeometry width="50" height="50" relative="1" as="geometry">
            <mxPoint x="880" y="1972.5" as="sourcePoint" />
            <mxPoint x="1100" y="1972.5" as="targetPoint" />
          </mxGeometry>
        </mxCell>
        <mxCell id="0cGDIsokcY6Pq8aXIOwh-40" value="" style="endArrow=none;html=1;rounded=0;elbow=vertical;shape=link;strokeWidth=3;" edge="1" parent="1">
          <mxGeometry width="50" height="50" relative="1" as="geometry">
            <mxPoint x="900" y="2092.5" as="sourcePoint" />
            <mxPoint x="900" y="1982.5" as="targetPoint" />
          </mxGeometry>
        </mxCell>
        <mxCell id="0cGDIsokcY6Pq8aXIOwh-41" value="" style="endArrow=none;html=1;rounded=0;shape=link;strokeWidth=3;" edge="1" parent="1">
          <mxGeometry width="50" height="50" relative="1" as="geometry">
            <mxPoint x="940" y="2092.5" as="sourcePoint" />
            <mxPoint x="940" y="1982.5" as="targetPoint" />
          </mxGeometry>
        </mxCell>
        <mxCell id="0cGDIsokcY6Pq8aXIOwh-42" value="" style="endArrow=none;html=1;rounded=0;shape=link;strokeWidth=3;" edge="1" parent="1">
          <mxGeometry width="50" height="50" relative="1" as="geometry">
            <mxPoint x="1040" y="2092.5" as="sourcePoint" />
            <mxPoint x="1040" y="1982.5" as="targetPoint" />
          </mxGeometry>
        </mxCell>
        <mxCell id="0cGDIsokcY6Pq8aXIOwh-43" value="" style="endArrow=none;html=1;rounded=0;shape=link;strokeWidth=3;" edge="1" parent="1">
          <mxGeometry width="50" height="50" relative="1" as="geometry">
            <mxPoint x="1080" y="2092.5" as="sourcePoint" />
            <mxPoint x="1080" y="1982.5" as="targetPoint" />
          </mxGeometry>
        </mxCell>
        <mxCell id="0cGDIsokcY6Pq8aXIOwh-71" style="edgeStyle=orthogonalEdgeStyle;rounded=1;orthogonalLoop=1;jettySize=auto;html=1;curved=0;dashed=1;" edge="1" parent="1" source="0cGDIsokcY6Pq8aXIOwh-44" target="0cGDIsokcY6Pq8aXIOwh-52">
          <mxGeometry relative="1" as="geometry">
            <Array as="points">
              <mxPoint x="1220" y="2300" />
              <mxPoint x="1220" y="2250" />
            </Array>
          </mxGeometry>
        </mxCell>
        <mxCell id="0cGDIsokcY6Pq8aXIOwh-44" value="ChromaDB" style="shape=datastore;whiteSpace=wrap;html=1;fontSize=17;strokeWidth=3;" vertex="1" parent="1">
          <mxGeometry x="910" y="2190.5" width="157" height="110" as="geometry" />
        </mxCell>
        <mxCell id="0cGDIsokcY6Pq8aXIOwh-45" value="" style="endArrow=none;dashed=1;html=1;dashPattern=1 3;strokeWidth=3;rounded=0;" edge="1" parent="1">
          <mxGeometry width="50" height="50" relative="1" as="geometry">
            <mxPoint x="880" y="2102.5" as="sourcePoint" />
            <mxPoint x="1100" y="2102.5" as="targetPoint" />
          </mxGeometry>
        </mxCell>
        <mxCell id="0cGDIsokcY6Pq8aXIOwh-47" value="" style="endArrow=none;html=1;rounded=1;strokeWidth=3;curved=0;" edge="1" parent="1">
          <mxGeometry width="50" height="50" relative="1" as="geometry">
            <mxPoint x="940" y="2112.5" as="sourcePoint" />
            <mxPoint x="1040" y="2112.5" as="targetPoint" />
            <Array as="points">
              <mxPoint x="950" y="2132.5" />
              <mxPoint x="990" y="2162.5" />
              <mxPoint x="1030" y="2132.5" />
            </Array>
          </mxGeometry>
        </mxCell>
        <mxCell id="0cGDIsokcY6Pq8aXIOwh-48" value="" style="endArrow=none;html=1;rounded=1;strokeWidth=3;curved=0;exitX=0.762;exitY=0.018;exitDx=0;exitDy=0;exitPerimeter=0;" edge="1" source="0cGDIsokcY6Pq8aXIOwh-44" parent="1">
          <mxGeometry width="50" height="50" relative="1" as="geometry">
            <mxPoint x="1040" y="2182.5" as="sourcePoint" />
            <mxPoint x="1080" y="2112.5" as="targetPoint" />
            <Array as="points">
              <mxPoint x="1030" y="2172.5" />
            </Array>
          </mxGeometry>
        </mxCell>
        <mxCell id="0cGDIsokcY6Pq8aXIOwh-49" value="1.&lt;br&gt;Data Preparation" style="text;html=1;align=center;verticalAlign=middle;whiteSpace=wrap;rounded=0;fontSize=21;fontStyle=1" vertex="1" parent="1">
          <mxGeometry x="958.5" y="1580" width="60" height="30" as="geometry" />
        </mxCell>
        <mxCell id="0cGDIsokcY6Pq8aXIOwh-70" style="edgeStyle=orthogonalEdgeStyle;rounded=1;orthogonalLoop=1;jettySize=auto;html=1;dashed=1;curved=0;" edge="1" parent="1" source="0cGDIsokcY6Pq8aXIOwh-52" target="0cGDIsokcY6Pq8aXIOwh-44">
          <mxGeometry relative="1" as="geometry">
            <Array as="points">
              <mxPoint x="1180" y="2220" />
              <mxPoint x="1180" y="2270" />
            </Array>
          </mxGeometry>
        </mxCell>
        <mxCell id="0cGDIsokcY6Pq8aXIOwh-72" style="edgeStyle=orthogonalEdgeStyle;rounded=0;orthogonalLoop=1;jettySize=auto;html=1;strokeWidth=3;" edge="1" parent="1" source="0cGDIsokcY6Pq8aXIOwh-52" target="0cGDIsokcY6Pq8aXIOwh-59">
          <mxGeometry relative="1" as="geometry" />
        </mxCell>
        <mxCell id="0cGDIsokcY6Pq8aXIOwh-52" value="ChromaDB-Client" style="rounded=1;whiteSpace=wrap;html=1;fontSize=20;strokeWidth=3;" vertex="1" parent="1">
          <mxGeometry x="1292" y="2208" width="173.5" height="56" as="geometry" />
        </mxCell>
        <mxCell id="0cGDIsokcY6Pq8aXIOwh-73" style="edgeStyle=orthogonalEdgeStyle;rounded=0;orthogonalLoop=1;jettySize=auto;html=1;strokeWidth=3;" edge="1" parent="1" source="0cGDIsokcY6Pq8aXIOwh-59" target="0cGDIsokcY6Pq8aXIOwh-65">
          <mxGeometry relative="1" as="geometry" />
        </mxCell>
        <mxCell id="0cGDIsokcY6Pq8aXIOwh-59" value="LLM" style="shape=parallelogram;perimeter=parallelogramPerimeter;whiteSpace=wrap;html=1;fixedSize=1;strokeWidth=3;fontSize=23;" vertex="1" parent="1">
          <mxGeometry x="1529.75" y="2030" width="172" height="80" as="geometry" />
        </mxCell>
        <mxCell id="0cGDIsokcY6Pq8aXIOwh-68" style="edgeStyle=orthogonalEdgeStyle;rounded=0;orthogonalLoop=1;jettySize=auto;html=1;strokeWidth=3;" edge="1" parent="1" source="0cGDIsokcY6Pq8aXIOwh-60" target="0cGDIsokcY6Pq8aXIOwh-61">
          <mxGeometry relative="1" as="geometry" />
        </mxCell>
        <mxCell id="0cGDIsokcY6Pq8aXIOwh-60" value="Student" style="shape=umlActor;verticalLabelPosition=bottom;verticalAlign=top;html=1;outlineConnect=0;strokeWidth=3;fontSize=22;" vertex="1" parent="1">
          <mxGeometry x="1473.5" y="1720" width="50" height="90" as="geometry" />
        </mxCell>
        <mxCell id="0cGDIsokcY6Pq8aXIOwh-69" style="edgeStyle=orthogonalEdgeStyle;rounded=0;orthogonalLoop=1;jettySize=auto;html=1;strokeWidth=3;" edge="1" parent="1" source="0cGDIsokcY6Pq8aXIOwh-61" target="0cGDIsokcY6Pq8aXIOwh-52">
          <mxGeometry relative="1" as="geometry" />
        </mxCell>
        <mxCell id="0cGDIsokcY6Pq8aXIOwh-61" value="Question" style="shape=card;whiteSpace=wrap;html=1;fillColor=#ffe6cc;strokeColor=#d79b00;fontSize=27;strokeWidth=3;" vertex="1" parent="1">
          <mxGeometry x="1300" y="1940" width="157.5" height="70" as="geometry" />
        </mxCell>
        <mxCell id="0cGDIsokcY6Pq8aXIOwh-80" style="edgeStyle=orthogonalEdgeStyle;rounded=0;orthogonalLoop=1;jettySize=auto;html=1;strokeWidth=3;" edge="1" parent="1" source="0cGDIsokcY6Pq8aXIOwh-65" target="0cGDIsokcY6Pq8aXIOwh-60">
          <mxGeometry relative="1" as="geometry">
            <Array as="points">
              <mxPoint x="1620" y="1765" />
            </Array>
          </mxGeometry>
        </mxCell>
        <mxCell id="0cGDIsokcY6Pq8aXIOwh-65" value="Answer" style="shape=card;whiteSpace=wrap;html=1;fillColor=#ffe6cc;strokeColor=#d79b00;fontSize=27;strokeWidth=3;" vertex="1" parent="1">
          <mxGeometry x="1537" y="1880" width="157.5" height="70" as="geometry" />
        </mxCell>
        <mxCell id="0cGDIsokcY6Pq8aXIOwh-75" value="Combined&lt;br&gt;Information" style="shape=card;whiteSpace=wrap;html=1;fillColor=#ffe6cc;strokeColor=#d79b00;fontSize=21;strokeWidth=3;" vertex="1" parent="1">
          <mxGeometry x="1523.5" y="2190" width="157.5" height="70" as="geometry" />
        </mxCell>
        <mxCell id="0cGDIsokcY6Pq8aXIOwh-77" value="2. General Retrieval" style="text;html=1;align=center;verticalAlign=middle;whiteSpace=wrap;rounded=0;fontSize=21;fontStyle=1" vertex="1" parent="1">
          <mxGeometry x="1477" y="1628" width="60" height="30" as="geometry" />
        </mxCell>
        <mxCell id="0cGDIsokcY6Pq8aXIOwh-78" value="3. &lt;br&gt;Testing &amp;amp;&lt;br&gt;&amp;nbsp;Optimisation" style="text;html=1;align=center;verticalAlign=middle;whiteSpace=wrap;rounded=0;fontSize=21;fontStyle=1" vertex="1" parent="1">
          <mxGeometry x="1950" y="1640" width="60" height="30" as="geometry" />
        </mxCell>
        <mxCell id="0cGDIsokcY6Pq8aXIOwh-88" style="edgeStyle=orthogonalEdgeStyle;rounded=0;orthogonalLoop=1;jettySize=auto;html=1;strokeWidth=3;" edge="1" parent="1" source="0cGDIsokcY6Pq8aXIOwh-81" target="0cGDIsokcY6Pq8aXIOwh-83">
          <mxGeometry relative="1" as="geometry">
            <Array as="points">
              <mxPoint x="1872" y="2058" />
              <mxPoint x="1905" y="2058" />
            </Array>
          </mxGeometry>
        </mxCell>
        <mxCell id="0cGDIsokcY6Pq8aXIOwh-81" value="Chatbot-Client" style="rounded=1;whiteSpace=wrap;html=1;fontSize=20;strokeWidth=3;" vertex="1" parent="1">
          <mxGeometry x="1785" y="1950" width="173.5" height="56" as="geometry" />
        </mxCell>
        <mxCell id="0cGDIsokcY6Pq8aXIOwh-91" style="edgeStyle=orthogonalEdgeStyle;rounded=0;orthogonalLoop=1;jettySize=auto;html=1;strokeWidth=3;" edge="1" parent="1" source="0cGDIsokcY6Pq8aXIOwh-83" target="0cGDIsokcY6Pq8aXIOwh-90">
          <mxGeometry relative="1" as="geometry" />
        </mxCell>
        <mxCell id="0cGDIsokcY6Pq8aXIOwh-83" value="LLM" style="shape=parallelogram;perimeter=parallelogramPerimeter;whiteSpace=wrap;html=1;fixedSize=1;strokeWidth=3;fontSize=26;" vertex="1" parent="1">
          <mxGeometry x="1849" y="2180" width="172" height="80" as="geometry" />
        </mxCell>
        <mxCell id="0cGDIsokcY6Pq8aXIOwh-84" value="Unit Test" style="swimlane;whiteSpace=wrap;html=1;fontSize=19;fillColor=#e1d5e7;strokeColor=#9673a6;strokeWidth=3;" vertex="1" parent="1">
          <mxGeometry x="1985" y="1754" width="210" height="156" as="geometry" />
        </mxCell>
        <mxCell id="0cGDIsokcY6Pq8aXIOwh-85" value="Question" style="shape=process;whiteSpace=wrap;html=1;backgroundOutline=1;fontSize=19;fillColor=#ffe6cc;strokeColor=#d79b00;strokeWidth=3;" vertex="1" parent="0cGDIsokcY6Pq8aXIOwh-84">
          <mxGeometry x="23.63000000000011" y="36" width="162.75" height="30" as="geometry" />
        </mxCell>
        <mxCell id="0cGDIsokcY6Pq8aXIOwh-82" value="&lt;div&gt;Expected Response&lt;/div&gt;" style="shape=process;whiteSpace=wrap;html=1;backgroundOutline=1;fontSize=20;fillColor=#ffe6cc;strokeColor=#d79b00;strokeWidth=3;" vertex="1" parent="0cGDIsokcY6Pq8aXIOwh-84">
          <mxGeometry x="23.63" y="75" width="166.38" height="50" as="geometry" />
        </mxCell>
        <mxCell id="0cGDIsokcY6Pq8aXIOwh-86" style="edgeStyle=orthogonalEdgeStyle;rounded=0;orthogonalLoop=1;jettySize=auto;html=1;strokeWidth=3;" edge="1" parent="1" source="0cGDIsokcY6Pq8aXIOwh-85" target="0cGDIsokcY6Pq8aXIOwh-81">
          <mxGeometry relative="1" as="geometry">
            <Array as="points">
              <mxPoint x="1915" y="1805" />
            </Array>
          </mxGeometry>
        </mxCell>
        <mxCell id="0cGDIsokcY6Pq8aXIOwh-87" value="Answer" style="shape=card;whiteSpace=wrap;html=1;fillColor=#ffe6cc;strokeColor=#d79b00;fontSize=22;strokeWidth=3;" vertex="1" parent="1">
          <mxGeometry x="1821" y="2090" width="127.5" height="40" as="geometry" />
        </mxCell>
        <mxCell id="0cGDIsokcY6Pq8aXIOwh-89" style="edgeStyle=orthogonalEdgeStyle;rounded=0;orthogonalLoop=1;jettySize=auto;html=1;strokeWidth=3;" edge="1" parent="1" source="0cGDIsokcY6Pq8aXIOwh-82" target="0cGDIsokcY6Pq8aXIOwh-83">
          <mxGeometry relative="1" as="geometry">
            <Array as="points">
              <mxPoint x="2045" y="2040" />
              <mxPoint x="1990" y="2040" />
            </Array>
          </mxGeometry>
        </mxCell>
        <mxCell id="0cGDIsokcY6Pq8aXIOwh-92" style="edgeStyle=orthogonalEdgeStyle;rounded=0;orthogonalLoop=1;jettySize=auto;html=1;strokeWidth=3;" edge="1" parent="1" source="0cGDIsokcY6Pq8aXIOwh-90" target="0cGDIsokcY6Pq8aXIOwh-84">
          <mxGeometry relative="1" as="geometry">
            <Array as="points">
              <mxPoint x="2195" y="1967" />
              <mxPoint x="2125" y="1967" />
            </Array>
          </mxGeometry>
        </mxCell>
        <mxCell id="0cGDIsokcY6Pq8aXIOwh-90" value="True/False" style="ellipse;shape=cloud;whiteSpace=wrap;html=1;strokeWidth=3;fontSize=20;" vertex="1" parent="1">
          <mxGeometry x="2125" y="2140" width="155" height="80" as="geometry" />
        </mxCell>
        <mxCell id="0cGDIsokcY6Pq8aXIOwh-93" style="edgeStyle=orthogonalEdgeStyle;rounded=0;orthogonalLoop=1;jettySize=auto;html=1;curved=1;exitX=0.094;exitY=-0.01;exitDx=0;exitDy=0;exitPerimeter=0;strokeWidth=3;" edge="1" parent="1" source="0cGDIsokcY6Pq8aXIOwh-81" target="0cGDIsokcY6Pq8aXIOwh-81">
          <mxGeometry relative="1" as="geometry">
            <Array as="points">
              <mxPoint x="1801" y="1879" />
              <mxPoint x="1865" y="1879" />
            </Array>
          </mxGeometry>
        </mxCell>
        <mxCell id="0cGDIsokcY6Pq8aXIOwh-94" value="Refine&lt;br&gt;Parameters" style="edgeLabel;html=1;align=center;verticalAlign=middle;resizable=0;points=[];fontSize=18;" vertex="1" connectable="0" parent="0cGDIsokcY6Pq8aXIOwh-93">
          <mxGeometry x="-0.0608" y="-2" relative="1" as="geometry">
            <mxPoint x="-23" y="-2" as="offset" />
          </mxGeometry>
        </mxCell>
        <mxCell id="0cGDIsokcY6Pq8aXIOwh-95" style="edgeStyle=orthogonalEdgeStyle;rounded=0;orthogonalLoop=1;jettySize=auto;html=1;strokeWidth=1;" edge="1" source="0cGDIsokcY6Pq8aXIOwh-96" target="0cGDIsokcY6Pq8aXIOwh-98" parent="1">
          <mxGeometry relative="1" as="geometry">
            <Array as="points">
              <mxPoint x="2897" y="2058" />
              <mxPoint x="2920" y="2058" />
            </Array>
          </mxGeometry>
        </mxCell>
        <mxCell id="0cGDIsokcY6Pq8aXIOwh-96" value="Chatbot-Client" style="rounded=1;whiteSpace=wrap;html=1;fontSize=20;strokeWidth=1;" vertex="1" parent="1">
          <mxGeometry x="2860" y="1940" width="173.5" height="56" as="geometry" />
        </mxCell>
        <mxCell id="0cGDIsokcY6Pq8aXIOwh-97" style="edgeStyle=orthogonalEdgeStyle;rounded=0;orthogonalLoop=1;jettySize=auto;html=1;strokeWidth=1;" edge="1" source="0cGDIsokcY6Pq8aXIOwh-112" target="0cGDIsokcY6Pq8aXIOwh-114" parent="1">
          <mxGeometry relative="1" as="geometry">
            <mxPoint x="3332.2198349762957" y="2245.505" as="targetPoint" />
            <Array as="points" />
          </mxGeometry>
        </mxCell>
        <mxCell id="0cGDIsokcY6Pq8aXIOwh-98" value="LLM" style="shape=parallelogram;perimeter=parallelogramPerimeter;whiteSpace=wrap;html=1;fixedSize=1;strokeWidth=1;fontSize=26;" vertex="1" parent="1">
          <mxGeometry x="2874" y="2205.5" width="172" height="80" as="geometry" />
        </mxCell>
        <mxCell id="0cGDIsokcY6Pq8aXIOwh-99" value="Unit Test" style="swimlane;whiteSpace=wrap;html=1;fontSize=19;fillColor=#e1d5e7;strokeColor=#9673a6;strokeWidth=1;" vertex="1" parent="1">
          <mxGeometry x="3250" y="1850" width="230" height="156" as="geometry" />
        </mxCell>
        <mxCell id="0cGDIsokcY6Pq8aXIOwh-100" value="Question" style="shape=process;whiteSpace=wrap;html=1;backgroundOutline=1;fontSize=19;fillColor=#ffe6cc;strokeColor=#d79b00;strokeWidth=1;" vertex="1" parent="0cGDIsokcY6Pq8aXIOwh-99">
          <mxGeometry x="23.63000000000011" y="36" width="162.75" height="30" as="geometry" />
        </mxCell>
        <mxCell id="0cGDIsokcY6Pq8aXIOwh-101" value="&lt;div&gt;Expected Response&lt;/div&gt;" style="shape=process;whiteSpace=wrap;html=1;backgroundOutline=1;fontSize=20;fillColor=#ffe6cc;strokeColor=#d79b00;strokeWidth=1;" vertex="1" parent="0cGDIsokcY6Pq8aXIOwh-99">
          <mxGeometry x="23.63" y="75" width="166.38" height="50" as="geometry" />
        </mxCell>
        <mxCell id="0cGDIsokcY6Pq8aXIOwh-102" style="edgeStyle=orthogonalEdgeStyle;rounded=0;orthogonalLoop=1;jettySize=auto;html=1;strokeWidth=1;" edge="1" source="0cGDIsokcY6Pq8aXIOwh-100" target="0cGDIsokcY6Pq8aXIOwh-96" parent="1">
          <mxGeometry relative="1" as="geometry">
            <Array as="points">
              <mxPoint x="2940" y="1901" />
            </Array>
          </mxGeometry>
        </mxCell>
        <mxCell id="0cGDIsokcY6Pq8aXIOwh-103" value="Answer" style="shape=card;whiteSpace=wrap;html=1;fillColor=#ffe6cc;strokeColor=#d79b00;fontSize=22;strokeWidth=1;" vertex="1" parent="1">
          <mxGeometry x="2840" y="2080" width="127.5" height="40" as="geometry" />
        </mxCell>
        <mxCell id="0cGDIsokcY6Pq8aXIOwh-104" style="edgeStyle=orthogonalEdgeStyle;rounded=0;orthogonalLoop=1;jettySize=auto;html=1;strokeWidth=1;" edge="1" source="0cGDIsokcY6Pq8aXIOwh-101" target="0cGDIsokcY6Pq8aXIOwh-98" parent="1">
          <mxGeometry relative="1" as="geometry">
            <Array as="points">
              <mxPoint x="3070" y="1950" />
              <mxPoint x="3070" y="2040" />
              <mxPoint x="3000" y="2040" />
            </Array>
          </mxGeometry>
        </mxCell>
        <mxCell id="0cGDIsokcY6Pq8aXIOwh-105" style="edgeStyle=orthogonalEdgeStyle;rounded=0;orthogonalLoop=1;jettySize=auto;html=1;strokeWidth=1;" edge="1" source="0cGDIsokcY6Pq8aXIOwh-114" parent="1">
          <mxGeometry relative="1" as="geometry">
            <mxPoint x="3345" y="2196.1877454953765" as="sourcePoint" />
            <mxPoint x="3305" y="2006" as="targetPoint" />
            <Array as="points">
              <mxPoint x="3305" y="2080" />
              <mxPoint x="3305" y="2080" />
            </Array>
          </mxGeometry>
        </mxCell>
        <mxCell id="0cGDIsokcY6Pq8aXIOwh-118" value="Return True" style="edgeLabel;html=1;align=center;verticalAlign=middle;resizable=0;points=[];fontSize=16;" vertex="1" connectable="0" parent="0cGDIsokcY6Pq8aXIOwh-105">
          <mxGeometry x="0.0436" relative="1" as="geometry">
            <mxPoint y="-15" as="offset" />
          </mxGeometry>
        </mxCell>
        <mxCell id="0cGDIsokcY6Pq8aXIOwh-109" value="Actual Response matches&amp;nbsp;&lt;div&gt;expected Response?&lt;/div&gt;&lt;div&gt;True/False&lt;/div&gt;" style="shape=callout;whiteSpace=wrap;html=1;perimeter=calloutPerimeter;rotation=0;fillColor=#f5f5f5;strokeColor=#666666;fontColor=#333333;position2=0;base=30;horizontal=1;flipH=0;flipV=0;size=26;position=0.39;fontSize=15;" vertex="1" parent="1">
          <mxGeometry x="3033.5" y="2100" width="166.5" height="105.5" as="geometry" />
        </mxCell>
        <mxCell id="0cGDIsokcY6Pq8aXIOwh-113" value="" style="edgeStyle=orthogonalEdgeStyle;rounded=0;orthogonalLoop=1;jettySize=auto;html=1;strokeWidth=1;" edge="1" parent="1" source="0cGDIsokcY6Pq8aXIOwh-98" target="0cGDIsokcY6Pq8aXIOwh-112">
          <mxGeometry relative="1" as="geometry">
            <mxPoint x="3036" y="2246" as="sourcePoint" />
            <mxPoint x="3332" y="2246" as="targetPoint" />
            <Array as="points">
              <mxPoint x="3100" y="2250" />
              <mxPoint x="3100" y="2250" />
            </Array>
          </mxGeometry>
        </mxCell>
        <mxCell id="0cGDIsokcY6Pq8aXIOwh-112" value="Evaluation" style="shape=card;whiteSpace=wrap;html=1;fillColor=#ffe6cc;strokeColor=#d79b00;fontSize=18;verticalAlign=bottom;size=20;" vertex="1" parent="1">
          <mxGeometry x="3120" y="2228.75" width="110" height="35.25" as="geometry" />
        </mxCell>
        <mxCell id="0cGDIsokcY6Pq8aXIOwh-114" value="" style="rounded=1;whiteSpace=wrap;html=1;fontSize=16;" vertex="1" parent="1">
          <mxGeometry x="3260" y="2150" width="165" height="50" as="geometry" />
        </mxCell>
        <mxCell id="0cGDIsokcY6Pq8aXIOwh-115" value="Contains &#39;True&#39;" style="text;html=1;align=center;verticalAlign=middle;whiteSpace=wrap;rounded=0;fontSize=16;" vertex="1" parent="1">
          <mxGeometry x="3275" y="2158.75" width="60" height="30" as="geometry" />
        </mxCell>
        <mxCell id="0cGDIsokcY6Pq8aXIOwh-116" value="Contains &#39;False&#39;" style="text;html=1;align=center;verticalAlign=middle;whiteSpace=wrap;rounded=0;fontSize=16;" vertex="1" parent="1">
          <mxGeometry x="3355" y="2160" width="60" height="30" as="geometry" />
        </mxCell>
        <mxCell id="0cGDIsokcY6Pq8aXIOwh-117" value="" style="endArrow=none;dashed=1;html=1;dashPattern=1 3;strokeWidth=2;rounded=0;entryX=0.5;entryY=1;entryDx=0;entryDy=0;exitX=0.5;exitY=0;exitDx=0;exitDy=0;fontSize=16;" edge="1" parent="1" source="0cGDIsokcY6Pq8aXIOwh-114" target="0cGDIsokcY6Pq8aXIOwh-114">
          <mxGeometry width="50" height="50" relative="1" as="geometry">
            <mxPoint x="3315" y="2100" as="sourcePoint" />
            <mxPoint x="3365" y="2050" as="targetPoint" />
          </mxGeometry>
        </mxCell>
        <mxCell id="0cGDIsokcY6Pq8aXIOwh-119" style="edgeStyle=orthogonalEdgeStyle;rounded=0;orthogonalLoop=1;jettySize=auto;html=1;strokeWidth=1;" edge="1" parent="1" source="0cGDIsokcY6Pq8aXIOwh-114">
          <mxGeometry relative="1" as="geometry">
            <mxPoint x="3475" y="2244" as="sourcePoint" />
            <mxPoint x="3385" y="2006" as="targetPoint" />
            <Array as="points">
              <mxPoint x="3385" y="2060" />
              <mxPoint x="3385" y="2060" />
            </Array>
          </mxGeometry>
        </mxCell>
        <mxCell id="0cGDIsokcY6Pq8aXIOwh-120" value="Return False" style="edgeLabel;html=1;align=center;verticalAlign=middle;resizable=0;points=[];fontSize=16;" vertex="1" connectable="0" parent="0cGDIsokcY6Pq8aXIOwh-119">
          <mxGeometry x="0.0436" relative="1" as="geometry">
            <mxPoint y="35" as="offset" />
          </mxGeometry>
        </mxCell>
      </root>
    </mxGraphModel>
  </diagram>
</mxfile>
